<?xml version="1.0" encoding="UTF-8"?> <svg xmlns="http://www.w3.org/2000/svg" viewBox="0 0 68.63 95.21"><defs><style>.cls-1{fill:#19a1a1;}</style></defs><g id="Layer_2" data-name="Layer 2"><g id="Layer_1-2" data-name="Layer 1"><path class="cls-1" d="M68.63,39.29v-.23a4.5,4.5,0,0,0-4.5-4.5H63.9a4.42,4.42,0,0,0-2.61.84L38.92,22.49c0-.12,0-.23,0-.34v-.24a4.5,4.5,0,0,0-4.5-4.49h-.23a4.49,4.49,0,0,0-4.5,4.49v.24c0,.11,0,.22,0,.34L7.36,35.4a4.72,4.72,0,0,0-.82-.47V8.86a4.64,4.64,0,1,0-3.81,0V34.93A4.51,4.51,0,0,0,0,39.06v.23a4.52,4.52,0,0,0,2.71,4.13V69.21A4.51,4.51,0,0,0,0,73.34v.23a4.51,4.51,0,0,0,4.5,4.5h.23a4.42,4.42,0,0,0,2.61-.84L29.73,90.14c0,.11,0,.22,0,.34v.23a4.49,4.49,0,0,0,4.5,4.5h.23a4.5,4.5,0,0,0,4.5-4.5v-.23c0-.12,0-.23,0-.34L61.29,77.23a4.42,4.42,0,0,0,2.61.84h.23a4.51,4.51,0,0,0,4.5-4.5v-.23a4.51,4.51,0,0,0-2.71-4.13V43.42A4.52,4.52,0,0,0,68.63,39.29ZM62.11,68.5C60,65,56.36,61.22,51.93,57.54c-1,.81-2,1.61-3.11,2.39,5.68,4.64,9.32,8.95,10.81,12a4.39,4.39,0,0,0-.23,1.41v.23c0,.12,0,.23,0,.34L37.05,86.82a4.5,4.5,0,0,0-2-.79c-2.82-4.68-5.54-15.29-5.54-29.72,0-2.23.07-4.37.19-6.42-1.27-.64-2.51-1.23-3.69-1.76-.2,2.69-.3,5.44-.3,8.18,0,11.61,1.78,23.31,5.23,30.15L10.35,74.56c3.84,0,8.85-1.19,14.45-3.38-.18-1.28-.33-2.59-.45-3.91-7.38,3-13,3.91-16.06,3.3a4.49,4.49,0,0,0-1.75-1.36V43.42A4.65,4.65,0,0,0,8.3,42.05c4.6-.92,15.41,1.72,29,9.84,1.82,1.08,3.52,2.18,5.13,3.27,1.15-.8,2.23-1.6,3.25-2.38-2.07-1.45-4.23-2.85-6.42-4.16C28.09,42,17.31,38.08,10.35,38.07L31,26.17a49.38,49.38,0,0,0-4,14.07c1.19.49,2.39,1,3.62,1.6,1-7.06,2.76-12.31,4.53-15.25a4.43,4.43,0,0,0,2-.79L59.42,38.72c0,.11,0,.22,0,.34v.23a4.74,4.74,0,0,0,.23,1.42c-2.34,4.77-10,12.64-22.34,20-1.92,1.15-3.79,2.19-5.59,3.12.1,1.43.22,2.79.37,4.08,2.35-1.17,4.76-2.49,7.18-3.93C49.1,58.12,58.16,50.6,62.11,44.14Z"></path></g></g></svg> 