<?xml version="1.0" encoding="UTF-8"?> <svg xmlns="http://www.w3.org/2000/svg" viewBox="0 0 255.9 237.4"><defs><style>.cls-1{fill:#e2761b;stroke:#e2761b;}.cls-1,.cls-10,.cls-2,.cls-3,.cls-4,.cls-5,.cls-6,.cls-7,.cls-8,.cls-9{stroke-linecap:round;stroke-linejoin:round;}.cls-2{fill:#e4761b;stroke:#e4761b;}.cls-3{fill:#d7c1b3;stroke:#d7c1b3;}.cls-4{fill:#233447;stroke:#233447;}.cls-5{fill:#cd6116;stroke:#cd6116;}.cls-6{fill:#e4751f;stroke:#e4751f;}.cls-7{fill:#f6851b;stroke:#f6851b;}.cls-8{fill:#c0ad9e;stroke:#c0ad9e;}.cls-9{fill:#161616;stroke:#161616;}.cls-10{fill:#763d16;stroke:#763d16;}</style></defs><g id="Layer_2" data-name="Layer 2"><g id="Layer_1-2" data-name="Layer 1"><polygon class="cls-1" points="242.8 0.5 143.2 74.4 161.7 30.8 242.8 0.5"></polygon><polygon class="cls-2" points="13.1 0.5 111.8 75.1 94.2 30.8 13.1 0.5"></polygon><polygon class="cls-2" points="207 171.8 180.5 212.4 237.2 228 253.4 172.7 207 171.8"></polygon><polygon class="cls-2" points="2.6 172.7 18.7 228 75.4 212.4 49 171.8 2.6 172.7"></polygon><polygon class="cls-2" points="72.3 103.2 56.5 127.1 112.7 129.6 110.8 69.1 72.3 103.2"></polygon><polygon class="cls-2" points="183.6 103.2 144.5 68.4 143.2 129.6 199.4 127.1 183.6 103.2"></polygon><polygon class="cls-2" points="75.4 212.4 109.3 195.9 80.1 173.1 75.4 212.4"></polygon><polygon class="cls-2" points="146.6 195.9 180.5 212.4 175.8 173.1 146.6 195.9"></polygon><polygon class="cls-3" points="180.5 212.4 146.6 195.9 149.3 218 149 227.3 180.5 212.4"></polygon><polygon class="cls-3" points="75.4 212.4 106.9 227.3 106.7 218 109.3 195.9 75.4 212.4"></polygon><polygon class="cls-4" points="107.5 158.5 79.3 150.2 99.2 141.1 107.5 158.5"></polygon><polygon class="cls-4" points="148.4 158.5 156.7 141.1 176.7 150.2 148.4 158.5"></polygon><polygon class="cls-5" points="75.4 212.4 80.3 171.8 49 172.7 75.4 212.4"></polygon><polygon class="cls-5" points="175.6 171.8 180.5 212.4 207 172.7 175.6 171.8"></polygon><polygon class="cls-5" points="199.4 127.1 143.2 129.6 148.4 158.5 156.7 141.1 176.7 150.2 199.4 127.1"></polygon><polygon class="cls-5" points="79.3 150.2 99.2 141.1 107.5 158.5 112.7 129.6 56.5 127.1 79.3 150.2"></polygon><polygon class="cls-6" points="56.5 127.1 80.1 173.1 79.3 150.2 56.5 127.1"></polygon><polygon class="cls-6" points="176.7 150.2 175.8 173.1 199.4 127.1 176.7 150.2"></polygon><polygon class="cls-6" points="112.7 129.6 107.5 158.5 114.1 192.6 115.5 147.7 112.7 129.6"></polygon><polygon class="cls-6" points="143.2 129.6 140.5 147.6 141.8 192.6 148.4 158.5 143.2 129.6"></polygon><polygon class="cls-7" points="148.4 158.5 141.8 192.6 146.6 195.9 175.8 173.1 176.7 150.2 148.4 158.5"></polygon><polygon class="cls-7" points="79.3 150.2 80.1 173.1 109.3 195.9 114.1 192.6 107.5 158.5 79.3 150.2"></polygon><polygon class="cls-8" points="149 227.3 149.3 218 146.8 215.8 109.1 215.8 106.7 218 106.9 227.3 75.4 212.4 86.4 221.4 108.8 236.9 147.1 236.9 169.5 221.4 180.5 212.4 149 227.3"></polygon><polygon class="cls-9" points="146.6 195.9 141.8 192.6 114.1 192.6 109.3 195.9 106.7 218 109.1 215.8 146.8 215.8 149.3 218 146.6 195.9"></polygon><polygon class="cls-10" points="247 79.2 255.4 38.4 242.8 0.5 146.6 71.9 183.6 103.2 235.9 118.5 247.4 105 242.4 101.4 250.4 94.1 244.3 89.3 252.3 83.2 247 79.2"></polygon><polygon class="cls-10" points="0.5 38.4 9 79.2 3.6 83.2 11.6 89.3 5.5 94.1 13.5 101.4 8.5 105 20 118.5 72.3 103.2 109.3 71.9 13.1 0.5 0.5 38.4"></polygon><polygon class="cls-7" points="235.9 118.5 183.6 103.2 199.4 127.1 175.8 173.1 207 172.7 253.4 172.7 235.9 118.5"></polygon><polygon class="cls-7" points="72.3 103.2 20 118.5 2.6 172.7 49 172.7 80.1 173.1 56.5 127.1 72.3 103.2"></polygon><polygon class="cls-7" points="143.2 129.6 146.6 71.9 161.7 30.8 94.2 30.8 109.3 71.9 112.7 129.6 114 147.8 114.1 192.6 141.8 192.6 141.9 147.8 143.2 129.6"></polygon></g></g></svg> 