<?xml version="1.0" encoding="UTF-8"?> <svg xmlns="http://www.w3.org/2000/svg" width="61" height="34" viewBox="0 0 61 34" fill="none"><path d="M21.1639 22.0073L20.6693 21.5127H20.2984L20.113 21.3273V20.6473L19.4948 20.0291H18.9384L18.1348 19.2255H17.0221V19.04H16.7748V19.1636H16.5893V18.9782L16.5275 18.9164L16.2184 19.1636H15.9712V19.4109L15.6621 19.72L15.2293 19.2873L15.1057 19.4727H14.9202L14.5493 19.1636V18.0509H13.8075V17.68L13.9311 17.4945V16.8764H13.4366V17.1855L13.0657 17.5564H12.6948L12.1384 17V16.2582L12.2621 16.1345V15.5164L12.8184 14.96H13.1275L13.3748 15.1455H13.6221V14.8982H14.4875L14.7348 15.1455V15.7636L14.9821 16.0109H15.1675V15.3927L14.9821 15.2691V14.6509L15.8475 13.8473V13.6L15.6621 13.4145V12.9818H15.7857V13.2291H15.9712V12.8582H16.1566V12.6109L16.4039 12.3636H16.713V11.9927L16.9602 11.7455H17.2075L17.5784 11.3745L17.7639 11.4982L17.5166 11.7455L17.7639 11.9927L18.5675 11.1891L18.4439 11.0036L18.073 11.3745L17.8257 11.1273V10.3854H17.3312L16.713 11.0036V10.8182L17.393 10.1382H18.753V9.70545H19.1239L19.3093 9.45818L18.6912 8.84H18.3202V8.5309L17.9493 8.15999V7.72727L17.7639 7.54181L17.2075 8.09818L16.9602 7.8509V7.41818L16.4657 6.98545H15.6002V7.72727L15.353 8.03636L15.6621 8.28363V8.65454L15.353 8.96363V9.70545L15.1675 9.8909L14.7966 9.51999V8.96363H14.1784L13.6839 8.46908H13.2512L13.0039 8.15999V7.91272H12.6948V7.29454L13.313 6.67636H13.4984L14.0548 6.11999V5.87272H14.7348L15.0439 5.56363L14.8584 5.37818V4.75999H14.4257V5.25454L14.0548 5.62545L13.8693 5.37818V4.88363H13.5602V5.25454L13.0657 4.75999L13.2512 4.57454L12.8802 4.20363V3.7709H13.3748V3.39999H12.5711V4.57454L12.8184 4.75999V5.06909L12.3239 5.56363V5.31636H10.9021V5.1309H10.3457V5.74909L10.0984 5.43999H9.3566V5.1309H8.80024L8.55297 4.88363H7.62569L7.19297 4.4509L6.82206 4.82181H6.51297L6.69842 4.63636H6.14206L5.77115 5.00727L5.52387 4.75999H4.22569L3.97842 4.51272H2.86569L2.5566 4.20363H2.37115L2.12387 4.4509H1.56751L1.32024 4.75999V5.1309H0.763874V5.31636L1.07297 5.62545H1.50569V5.99636H1.13478V5.8109H0.825692L0.516602 6.05818H0.702056V6.36727H1.69115V6.67636H1.07297V6.98545L0.825692 7.1709L1.01115 7.41818V7.66545H1.44387V7.91272H2.30933L2.06206 8.22181V8.46908L1.81478 8.71636H1.38206L1.07297 9.02545H1.32024L1.50569 8.84H1.93842L2.80387 7.97454V7.60363L3.2366 7.1709V7.47999L3.11297 7.66545V7.91272L3.48388 7.54181H3.79297V7.29454H4.22569V7.60363H5.09115L5.77115 8.28363H6.20388L6.6366 8.65454V9.02545L6.88387 9.27272V9.64363L7.44024 10.1382H7.81115L8.18206 10.4473V10.6945H7.81115V11.0036L7.93478 11.1273V12.1164L7.81115 12.24V12.7345L8.12024 12.9818V13.2909L8.42933 13.6618V13.8473L8.98569 14.4036V14.7127L9.3566 15.0218V15.5782L10.2221 16.4436V16.2582L9.66569 15.7018V15.0836L9.41842 14.8364V14.6509H9.60388V14.8982L10.2839 15.5164V15.9491L10.7784 16.4436V17.1855L11.3966 17.8036H11.7675L12.0766 18.1127H13.0657L13.4984 18.5455H13.8693L14.1784 18.7927V19.2873H14.3639L14.7966 19.72H15.1057L15.2912 19.5345L15.6002 19.9054V20.7091L15.1675 21.1418V22.0691L14.9202 22.2545V22.6873L15.6002 23.3673V23.8618L15.9712 24.2327V24.6655L16.8366 25.5309V26.7054L16.5893 26.9527V28.3745L16.4039 28.56V30.9709L16.1566 31.2182V32.64L16.4039 32.8873L16.2802 33.0109V33.5054H16.6511V33.1345H17.0221V32.4545L17.5784 31.96L17.2075 31.5891L17.7021 31.0945V30.2909H18.0112L18.1966 30.1054V29.7345H18.753L19.0002 29.4873V28.9309L18.753 28.7455V28.3127L18.9384 28.4364V28.6836L19.1239 28.8691H19.4948L19.7421 28.6218V28.0655L20.3602 27.4473V26.6436L20.793 26.2109H21.473L21.7202 25.9636V25.5309L22.0912 25.16V23.9236L22.833 23.2436V22.8109L22.0293 22.0073H21.1639Z" fill="white"></path><path d="M8.6763 3.70909H9.17084V3.33818H8.61448L8.36721 3.09091L8.05811 3.4H7.74902V4.01818L7.9963 4.32728L8.6763 3.70909Z" fill="white"></path><path d="M10.0982 5.13092L10.4073 4.88365H11.0873L11.2109 5.00729H11.52L11.7055 4.82183V4.57456H11.3346L10.9018 4.14183V3.64729H10.2836L10.0982 3.83274L9.91273 3.64729L9.66546 3.89456V3.52365H9.41819V3.83274H8.86183L8.55273 4.14183L8.92364 4.51274H9.54183L9.35637 4.63638H8.98546L9.29455 4.94547H9.60364V5.13092H10.0982Z" fill="white"></path><path d="M9.1709 2.71999V2.90545H9.66544V3.02908H9.54181V3.27635H9.8509V3.15272H10.9018V2.71999H10.6545V2.47272H10.2836V2.71999H9.66544H9.1709Z" fill="white"></path><path d="M8.86184 2.3491H9.17093V2.04001H8.73821V2.16364H8.18184V2.41092H7.93457V2.78183H8.86184V2.3491Z" fill="white"></path><path d="M10.0369 2.10181H9.66602V2.34908H10.0369V2.10181Z" fill="white"></path><path d="M11.8293 1.7309H10.9639V2.1018H11.8293V1.7309Z" fill="white"></path><path d="M12.262 2.53455H11.582V3.09091H12.262V2.53455Z" fill="white"></path><path d="M12.3238 4.26545V3.39999H11.8292H11.7674H11.5201V3.64727H11.7674V3.7709H11.3965V3.95636H11.7674V4.26545H12.3238Z" fill="white"></path><path d="M15.5384 3.83273V3.46182H13.8075L13.6221 3.64728V4.26546L13.9312 4.57455H15.4766L16.3421 5.44001V6.24364H15.5384V6.49091H16.4039L16.8984 6.98546H17.5784L17.1457 6.55273H17.7021L17.2075 6.05819V5.7491L17.8257 6.36728L18.3203 5.93455V5.44001H17.5166L17.1457 5.0691V4.51273L16.8984 4.26546H16.2184V3.83273H15.5384Z" fill="white"></path><path d="M15.1052 3.21455V2.78182H13.6833L13.1888 2.34909H12.5088V2.59636H13.127V3.21455H15.1052Z" fill="white"></path><path d="M13.9317 1.97818V2.28727H13.6226V2.53455H15.4153V2.10182H15.848L17.1462 0.803638H17.8262L18.259 0.370911H13.9935L13.4989 0.865456H12.6953V1.48364L13.1899 1.97818H13.9317Z" fill="white"></path><path d="M14.549 6.30545H14.3018V6.61454H14.549V6.30545Z" fill="white"></path><path d="M12.5704 1.7309H12.1377V2.03999H12.5704V1.7309Z" fill="white"></path><path d="M16.0952 17.2473V17H15.8479L15.3533 16.5055H14.5497L14.3643 16.6909L14.5497 16.8146L14.6115 16.6909H15.1679L15.477 17.0618V17.2473H16.0952Z" fill="white"></path><path d="M16.4653 17.4945H16.1562V17.5564H16.4653H17.0835V17.2473H16.4653V17.4945Z" fill="white"></path><path d="M18.8762 10.0764V10.5709L18.6289 10.8182H19.618L19.8035 11.0036L19.9889 10.8182L19.5562 10.3855H19.2471V9.76727L18.8762 10.0764Z" fill="white"></path><path d="M24.3789 4.38909L24.5026 4.26546L24.8117 4.57455H24.9971V3.83273L24.7498 3.52364H25.1826V2.96727L25.368 2.84364L24.9971 2.47273H25.4917L25.0589 2.04L25.6153 1.48364L25.368 1.23636H25.9862L26.4808 0.741819H25.1826L24.9971 0.927273H24.5644L24.8735 0.618182H24.2553V0.556364H25.1208V0.309091H24.6262L24.3171 0H22.0298L21.7826 0.185455H21.1644L20.7935 0.556364L21.1026 0.865454H20.7317L20.2989 0.432728L19.9898 0.741819H19.6189L19.4335 0.556364H18.568L18.0117 1.11273H17.3317L17.7644 1.48364V1.73091H16.5898V2.10182H17.0226V2.34909H16.5898L17.0226 2.78182H17.8262L17.9498 2.59636H18.5062L19.3098 3.4V4.08H19.9898V4.38909H19.3717V5.00727H19.6808V4.63636H20.0517V5.25455H19.7426L19.6189 5.44V5.99636L20.0517 6.42909V6.73818L20.5462 7.23273H20.9171L21.288 7.60364L21.4117 7.41818V6.92364L21.7826 6.61455V5.99636H22.5862L23.3898 5.13091H24.1317L24.6262 4.63636L24.3789 4.38909Z" fill="white"></path><path d="M26.2947 6.11999L25.9238 5.74908H25.5529L25.4292 5.87272H24.7492L24.502 6.11999L25.0583 6.67636H25.6765L26.2947 6.11999Z" fill="white"></path><path d="M16.7753 33.2582V33.6291H16.5898L16.9608 34L17.1462 33.8145H17.2698L17.5171 33.5673L17.1462 33.2582H16.7753Z" fill="white"></path><path d="M59.8622 5.62544H59.4295L58.8113 5.00726H58.564L58.1313 4.57453H57.1422L56.7713 4.94544L56.6477 4.82181H55.6586L55.3495 4.51272H54.1131L53.6804 4.07999H52.6913L52.444 3.83272H51.9495V4.4509H51.0222L50.7749 4.20363V4.63635H50.3422L49.6004 3.70908L49.724 3.58544L49.5386 3.39999H48.9822L49.2913 3.70908H48.2404V3.46181H47.1277L46.7568 3.83272H46.0149L46.1386 3.70908H46.4477L46.9422 3.21453H47.5604V2.78181L47.1895 2.4109H46.3859L46.0768 2.10181H45.7677L45.3349 2.53453H45.0259L44.7786 2.84363H43.3568L43.1095 3.0909V3.46181H42.1822V3.83272L42.4913 4.14181V4.63635H42.3058V4.14181L42.0586 3.89454H41.564V4.38908H41.1931V3.7709H40.9459V4.82181H41.5022V5.56363H41.3786V5.06908H41.0695V5.62544L40.8222 5.87272H40.204L40.4513 5.62544H40.6986V3.7709H40.2659L39.7713 4.26544V4.82181L40.0186 5.06908L39.7713 5.31635L39.4004 4.94544H38.6586V5.19272H36.9895L36.4331 5.74908H36.124V5.56363L36.3713 5.31635L36.124 5.06908H35.8149V5.93454L35.6295 5.74908L35.2586 6.11999V6.30544H35.1349L34.8877 6.05817V6.55272H34.4549V6.05817L33.9604 5.56363H34.3931L34.6404 5.8109H35.0731L35.3822 5.50181L34.8258 4.94544H34.3313L34.1459 4.75999H33.7131V4.4509L33.3422 4.07999L33.1568 4.26544H32.6622L32.4768 4.4509H31.9204L31.1786 5.31635V5.62544L30.3131 6.4909H30.0659L29.3858 7.1709V7.66544L29.5713 7.8509V8.15999L29.6949 8.28363L29.8804 8.09817H30.1895L30.3749 7.91272V8.28363L30.684 8.59272V8.96363H30.8695V8.71635H31.3022V8.03635H31.6113L31.7968 7.8509L31.4258 7.47999V6.92363L32.044 6.30544V6.11999L32.2295 5.93454H32.6622V6.24363L32.1059 6.79999V7.41817L32.3531 7.66544H32.6622L32.7858 7.54181H33.1568L33.4659 7.8509H32.8477L32.724 7.97453H32.4768V8.59272L32.2913 8.28363H32.1059V8.90181L31.7968 9.2109H31.2404L31.1168 9.33454H30.4986L30.3131 9.14908V8.28363L30.004 8.59272V9.45817H29.5095L28.9531 10.0145H28.8295V10.2618L28.644 10.4473H28.3968V10.3236H28.2731V10.6327H27.7786V10.8182H28.0258L28.3968 11.1891V11.9309H27.2222L27.0368 12.1164V13.3527H27.4695L27.6549 13.5382L27.7168 13.4764H28.2113L28.644 13.0436V12.6109L28.8295 12.4254H29.0768V11.9927H29.324L29.4477 12.1164H29.6331L29.9422 11.8073H30.1895L30.3131 11.9309V12.1164L30.8077 12.6109H30.9313L31.1786 12.8582V13.2291H31.3022V12.5491L31.4877 12.7345L31.5495 12.6727L31.2404 12.3636H31.0549L30.4986 11.8073V11.6218L30.684 11.4364L30.8077 11.56L30.8695 11.4982L30.9931 11.6218V11.7454L31.364 12.1164H31.5495L31.7349 12.3018V12.7345L32.1059 13.1054H32.2913L32.1059 13.2909V13.4145L32.2295 13.5382L32.3531 13.4145V13.2291H32.5386L32.6004 13.2909V13.1054L32.2913 12.7964L32.4149 12.6727L32.5386 12.7964L32.6622 12.6727L32.5386 12.5491H32.9095V12.6727H33.0949L33.3422 12.4254L33.2186 12.3018V11.9309L33.4659 11.6836V11.3745L33.6513 11.1891H33.9604L34.1459 11.3745L34.0222 11.4982L34.2077 11.6836H34.3931L34.5786 11.4982L34.3313 11.2509L34.5168 11.0654H34.8877V11.2509L34.764 11.56L35.1968 11.9927H35.3204L35.5059 12.1782V12.3636L35.3204 12.5491H34.8877L34.5786 12.24H34.0222L33.8368 12.4254H33.4659L32.9713 12.92V13.2909L33.4659 13.7854L33.7131 13.5382L33.9604 13.7854H34.084L34.2695 13.6H34.5168V14.28L34.3931 14.4036V14.5891L34.2695 14.7127H34.0222L33.8368 14.5273H33.5277L33.3422 14.7127H32.5386L32.2295 14.4036H31.8586L31.7349 14.5273V14.7745L31.6113 14.8982H31.3022L30.8695 14.4654H30.3749L30.1277 14.2182V13.6618L30.2513 13.5382L30.1277 13.4145H29.6949L29.5713 13.5382H28.644L28.4586 13.7236H28.0258L27.8404 13.9091H27.5931L27.4077 13.7236L27.2222 13.9091V14.1564L26.9131 14.5891V15.1454L26.1095 15.9491V16.32L25.6768 16.7527V17.0618L25.8622 17.2473V18.1745L25.6768 18.2982V18.6073L25.9858 18.9164V19.1636L26.4186 19.5964V19.9054L27.0368 20.5236H27.3458L27.4695 20.4H28.2731L28.3968 20.2764H28.7677L28.9531 20.0909H29.2004L29.4477 20.3382V20.5236H30.004L30.1895 20.7091V21.1418L30.0659 21.2654V21.9454L30.4986 22.3782V22.6254L30.7458 22.8727V24.1709L30.4368 24.4182V25.2218L30.9313 25.7164V26.9527L31.364 27.3854V27.88L31.5495 28.0655V28.6218L31.7349 28.8073L31.9204 28.6218H32.9095L34.0222 27.5091V26.8291L34.1459 26.7054H34.3931V25.5927L35.3204 24.6654V23.5527L35.1349 23.2436V21.9454L36.6186 20.4618V20.2145L36.8659 19.9673V19.4727L37.1131 19.2254V18.7927L36.9895 18.9164H36.4949V19.04H36.0004L35.7531 18.7927V18.5454L35.0731 17.8654V17.4327L34.764 17.1236V16.6291L34.4549 16.32V15.8254L34.084 15.4545V15.2691L34.0222 15.2073V14.96L34.2695 15.2073L34.4549 15.0218V15.3309L34.764 15.64V15.9491L35.0731 16.2582V16.9382L35.7531 17.6182V18.2364L36.0004 18.4836H36.2477L36.4331 18.2982H36.7422L37.3604 17.68H37.7313L38.2877 17.1236V16.8764L38.4731 16.6909V16.4436L37.9786 15.9491V15.7636L37.5459 16.1964H37.1749V15.8254H37.0513V16.0109L36.8659 15.8254V15.5782L36.4949 15.2073V14.96L36.6804 14.7745H36.8659L37.0513 14.96V15.2073L37.484 15.64H37.7313L37.9168 15.4545L38.1022 15.64V15.8254H39.524L40.0186 16.32H40.3277L40.0186 16.6291L40.2659 16.8764L40.5749 16.5673V17.4327L40.8222 17.68V18.2364L41.0077 18.4218V18.6691L41.3168 18.9782V19.2873L41.564 19.5345L41.9349 19.1636V17.9891L42.8004 17.1236H43.0477L43.1713 17V16.7527H43.604L43.7277 16.6291L44.0368 16.9382V17.1236H44.2222V17.9273H44.5313V17.7418L44.9022 18.1127V19.5964L45.2731 19.9673V20.4618L45.644 20.8327H45.8295V20.4618L45.7058 20.3382V20.0291L45.0877 19.4109V18.4836H45.3968V18.6691L45.9531 19.2254V19.4727L46.2004 19.2254V19.1018H46.5095L46.7568 18.8545V18.1745L46.2622 17.68V17.1236L46.6331 16.7527H46.8186V17.0618H47.0659V16.7527H47.3131L47.4986 16.5673H47.9313L48.4877 16.0109V15.64L48.8586 15.2691V14.96H48.6731L48.9204 14.7127L48.6113 14.4036V14.1564L48.4258 13.9709V13.6L48.6113 13.4145H48.9204V13.2291H48.4877L48.364 13.3527L48.0549 13.0436L48.5495 12.5491H48.7968V12.7345L48.6731 12.8582L48.7968 12.9818L49.1059 12.6727L49.2913 12.8582V13.1673H49.6004L49.724 13.2909V13.9091H49.9095L50.1568 13.6618V13.2291L49.8477 12.92V12.6109L50.0949 12.3636V12.1782L50.5277 11.7454L50.7749 11.9927L51.6404 11.1273V10.88L52.0113 10.5091V9.45817L51.7022 9.14908H51.084L52.0731 8.15999V7.91272L52.444 7.54181H53.8659V7.91272H54.2368L54.484 7.66544V7.23272L54.8549 6.86181H55.2259L55.4731 7.10908L55.9059 6.67635L56.0295 6.79999L54.5459 8.46908V9.14908L54.6695 9.27272V10.0145L55.2877 9.39635V9.08726H55.5968V8.59272H55.844V8.09817L55.6586 7.91272L56.1531 7.41817H56.8331L57.0186 7.60363L57.7604 6.86181H58.4404V6.61453L58.0077 6.18181H58.6259V5.74908L58.8731 5.99635H59.1822L59.4913 6.30544H59.8004V6.05817L60.1095 5.74908L59.8622 5.62544ZM34.2695 21.3891V21.9454H33.8368V21.3891H34.2695ZM37.3604 12.0545V12.7964H37.5459V13.4764H36.9895L36.7422 13.2291V13.0436L36.8659 12.92V12.6727L36.9895 12.5491L36.6186 12.1782V11.8073L36.5568 11.7454V11.3127H36.8659L37.1131 11.0654H37.2368L37.6695 11.4982L37.4222 11.7454L37.2368 11.4982L36.9895 11.7454L37.3604 12.0545Z" fill="white"></path><path d="M51.8878 2.71997H51.4551V3.21452H51.8878V2.71997Z" fill="white"></path><path d="M45.0254 1.11273H44.4072V1.6691H45.0254V1.11273Z" fill="white"></path><path d="M45.9532 1.60727H45.5205V1.85454H45.9532V1.60727Z" fill="white"></path><path d="M38.2261 4.57456L37.7316 4.08001V3.64728L38.4734 2.96728H39.2152L39.4625 2.72001H39.8334V2.41092H39.277L39.0297 2.65819H38.2879L37.2988 3.58547V4.20365L37.6697 4.57456H38.2261Z" fill="white"></path><path d="M51.8261 13.1055L51.0843 13.7855H50.7752L50.5897 13.9709H50.4043V14.0946H51.0843L51.2079 14.2182L51.4552 13.9709H51.7643L52.0116 13.7236V13.1055L52.197 12.92V12.4255H52.0116L51.8261 12.6109V13.1055Z" fill="white"></path><path d="M50.2188 14.4654H50.3424V14.7745H50.5278V14.4654V14.2182H50.2188V14.4654Z" fill="white"></path><path d="M51.0223 14.1564H50.6514V14.3418H51.0223V14.1564Z" fill="white"></path><path d="M48.8586 16.0727H48.6113V16.6291H48.8586V16.0727Z" fill="white"></path><path d="M47.0659 17.2473H46.7568V17.5564H47.0659V17.2473Z" fill="white"></path><path d="M52.135 11.8073L52.0113 11.9309H51.8877V12.24L51.9495 12.3636L52.0113 12.3018V12.0545H52.1968L52.3822 12.1782L52.5677 11.9927H52.8768L52.5677 11.6836H52.3822V11.3745H52.135V11.8073Z" fill="white"></path><path d="M52.2588 9.21091V11.1273H52.4442V10.5091H52.6297V10.2618H52.4442V9.21091H52.2588Z" fill="white"></path><path d="M41.9342 19.4727L41.8105 19.5964V20.0291L41.9342 20.1527H42.0578L42.1815 20.0291V19.5345L41.9342 19.3491V19.4727Z" fill="white"></path><path d="M45.8915 21.2655L44.7788 20.1527H44.4697V20.3382L45.0879 20.9564V21.2655L45.5825 21.76V22.0691L45.9534 22.44H46.2625V21.9455L45.8915 21.5746V21.2655Z" fill="white"></path><path d="M47.6842 23.0582V22.8109H47.4369V22.5636H46.3242V22.8109H47.1279V23.0582H47.6842Z" fill="white"></path><path d="M48.3017 23.12H48.1162V23.2436H48.3017V23.12Z" fill="white"></path><path d="M48.9822 23.0582H48.6113V23.1818H48.9822V23.0582Z" fill="white"></path><path d="M56.062 25.655L55.9746 25.7424L56.2369 26.0047L56.3243 25.9173L56.062 25.655Z" fill="white"></path><path d="M49.5384 23.1088L49.1016 23.5462L49.189 23.6336L49.6259 23.1961L49.5384 23.1088Z" fill="white"></path><path d="M48.5367 19.06L48.0996 19.4972L48.187 19.5846L48.6242 19.1474L48.5367 19.06Z" fill="white"></path><path d="M46.6953 21.5127L47.2517 22.0073H47.8699L48.1171 21.76V20.5236L48.4262 20.2764L48.0553 19.9055L47.8699 20.0291V20.3382H47.7462L47.3753 20.7091H47.128V21.0182H46.6953V21.5127Z" fill="white"></path><path d="M49.1673 21.5127H48.6728V21.2655H49.2909V21.08H48.6728H48.4873V21.2655V22.44H48.6728V22.0073H48.8582V22.3164H48.9819V22.0073V21.76H49.1673V21.5127Z" fill="white"></path><path d="M49.9716 20.8945H49.7861V21.2036H49.9716V20.8945Z" fill="white"></path><path d="M50.3416 21.9454H49.9707V22.0691H50.3416V21.9454Z" fill="white"></path><path d="M48.5498 18.2982L48.8589 18.5455H49.1062L49.2298 18.7309L49.3534 18.6073L49.168 18.4218H48.8589V18.0509L49.0443 17.9273V17.4327H48.6734V17.9273H48.5498V18.2982Z" fill="white"></path><path d="M49.1054 19.6582H48.9199V19.8436H49.229V20.0291L49.4145 20.2146L49.5381 20.0909V19.7818H49.6617V19.4109H49.4763V19.5346H49.1054V19.6582Z" fill="white"></path><path d="M49.5387 19.04H49.415V19.2254H49.5387V19.04Z" fill="white"></path><path d="M49.5387 18.6691H49.415V18.8546H49.5387V18.6691Z" fill="white"></path><path d="M49.1679 19.1018H48.9824V19.3491H49.1679V19.1018Z" fill="white"></path><path d="M49.0436 18.8546H48.9199V18.9782H49.0436V18.8546Z" fill="white"></path><path d="M52.6913 22.1927H52.444L52.1349 21.8218H51.764L51.5785 21.6982H51.3931L51.084 22.0073V21.8836H50.9604V21.76V21.5127H50.8367H50.4658V21.76H50.8367V21.8836H50.7131V22.0691H50.8367H50.8985L51.1458 22.2545H51.4549L51.5785 22.44V22.9964H51.8876L52.0731 23.2436H52.3822V22.9964H52.8767L53.3095 23.4909H53.6185L53.0622 22.8727L53.2476 22.7491L52.6913 22.1927Z" fill="white"></path><path d="M53.866 22.44H53.4951V22.6255H53.866V22.44Z" fill="white"></path><path d="M54.5458 22.44H54.3604V22.6873H54.5458V22.44Z" fill="white"></path><path d="M53.6808 26.0873L53.0008 25.4073V25.16L52.8154 24.9745V24.4182H52.5063V23.9854L52.1972 23.6763V24.9127L52.0736 25.0363H51.8881L51.2081 24.3563L51.3318 24.1709V23.8H50.7136V23.9854H50.3427V24.2945L50.0954 24.5418L49.7245 24.1709L49.0445 24.9127V25.16L48.7972 25.4073H48.5499L48.3645 25.5927H47.9936L47.499 26.0873V27.2618L47.9318 27.6945V28.4363H47.6845L47.9318 28.6836H48.3645L48.6118 28.4363H49.2299L49.539 28.0654H50.7754L51.0227 28.3127V28.4982L51.2081 28.6836L51.579 28.3127V28.6218L51.8263 28.9309V29.1782L52.4445 29.7345L52.6918 29.4873L53.0008 29.7345L53.2481 29.4873H53.4954V29.0545L53.7427 28.8073V28.3745L54.0518 28.0654V26.7673L53.6808 26.3963V26.0873Z" fill="white"></path><path d="M36.5566 24.1709V24.4182L36.3711 24.6036H36.1857L35.9384 24.9127L35.8147 25.0364V25.3454L35.9384 25.4691V25.5927L35.7529 25.7782V26.4582L36.0002 26.7054H36.2475L36.4947 26.4582V25.9018L36.6802 25.7164V25.0982L36.9275 24.8509V24.2327L36.742 23.9854L36.5566 24.1709Z" fill="white"></path><path d="M37.8547 25.7164H37.6074V25.9636H37.8547V25.7164Z" fill="white"></path><path d="M18.382 17.5564H18.1348V17.8036H18.382V17.5564Z" fill="white"></path><path d="M17.7639 17.4946H17.5166V17.7418H17.7639V17.4946Z" fill="white"></path><path d="M18.5061 18.1745H18.2588V18.4218H18.5061V18.1745Z" fill="white"></path><path d="M18.5061 18.8546H18.2588V19.1018H18.5061V18.8546Z" fill="white"></path><path d="M38.3498 25.5309H38.1025V25.7782H38.3498V25.5309Z" fill="white"></path><path d="M32.8475 13.7854H32.4766V13.9091H32.8475V13.7854Z" fill="white"></path><path d="M34.2082 13.8473H33.9609V13.9709H34.2082V13.8473Z" fill="white"></path><path d="M31.0545 13.3527V13.2291H30.6836L30.9309 13.4764H31.0545V13.3527Z" fill="white"></path><path d="M30.1897 12.5491H29.9424V12.9818H30.1897V12.5491Z" fill="white"></path><path d="M30.1275 12.0546H30.0039V12.3636H30.1275V12.0546Z" fill="white"></path><path d="M27.7164 9.02544H27.9637V9.2109H28.0873V9.39635H27.84V9.64362L27.7164 9.76726V9.8909H28.0873V9.95272H27.9019L27.5928 10.2618H27.6546L27.7164 10.2H28.1491L28.2728 10.0764H28.6437L28.7673 9.95272L28.6437 9.82908H28.7673L28.891 9.76726V9.64362L28.7673 9.51999H28.6437V9.27272L28.0255 8.71635L28.211 8.5309V8.28362H27.84L28.0255 8.09817V7.97453H27.7164V8.15999L27.5928 8.28362V8.65453L27.7164 8.71635V9.02544Z" fill="white"></path><path d="M27.0988 10.0145L27.4697 9.58181V9.33454L27.6552 9.14908L27.4697 9.02545H27.4079L27.2843 8.90181L27.1607 9.02545V9.14908H26.9752V9.33454H26.8516V9.45817H26.9752V9.64363L26.8516 9.76727V9.8909H26.9752L27.0988 10.0145Z" fill="white"></path><path d="M30.622 8.77818H30.4365V8.96364H30.622V8.77818Z" fill="white"></path><path d="M31.6116 8.28363H31.5498V8.5309H31.6116V8.28363Z" fill="white"></path><path d="M32.4149 8.03638H32.2295V8.16001H32.4149V8.03638Z" fill="white"></path><path d="M33.0948 1.17453H31.8584V1.66908H33.0948V1.17453Z" fill="white"></path><path d="M31.2405 1.85456V2.04002H30.8078V2.16365H31.0551V2.28729H30.8696V2.41092H31.1169L31.3024 2.6582L31.7351 2.22547V1.9782H31.9205V1.79274H31.7351L31.5496 1.66911V1.36002H31.3024L31.0551 1.60729L30.8696 1.42183H30.5605V1.73093L30.6842 1.85456H31.2405Z" fill="white"></path><path d="M32.477 2.16364H31.9824V2.34909H32.477V2.16364Z" fill="white"></path><path d="M36.989 1.17453H35.8145V1.29817H36.989V1.17453Z" fill="white"></path><path d="M38.8446 1.0509H38.6592V1.29818H38.8446V1.0509Z" fill="white"></path><path d="M52.6289 30.4146L52.9998 30.7855L53.2471 30.5382V30.1673H52.6289V30.4146Z" fill="white"></path><path d="M57.3891 30.1673H57.2036V30.5382L57.0182 30.7236H56.8945L56.2764 31.3418L56.5236 31.5891H56.7709L57.08 31.28V31.0946L57.5745 30.5382V30.3527H57.3891V30.1673Z" fill="white"></path><path d="M58.1311 29.6109H57.8838V29.3018H57.7602V29.0545L57.3274 28.6836L57.2656 28.8073L57.6365 29.1164V29.7964L57.5129 29.92L57.7602 30.1673L57.6365 30.2909L57.822 30.4145L58.0693 30.1055V29.92H58.1929V29.7345L58.3783 29.6109L58.2547 29.4873L58.1311 29.6109Z" fill="white"></path><path d="M7.688 10.2618H7.37891L7.74982 10.5709H8.05891L7.688 10.2618Z" fill="white"></path></svg> 