<?xml version="1.0" encoding="UTF-8"?> <!-- Generator: Adobe Illustrator 24.1.0, SVG Export Plug-In . SVG Version: 6.00 Build 0) --> <svg xmlns="http://www.w3.org/2000/svg" xmlns:xlink="http://www.w3.org/1999/xlink" version="1.1" id="Layer_1" x="0px" y="0px" viewBox="0 0 135 58" style="enable-background:new 0 0 135 58;" xml:space="preserve"> <style type="text/css"> .st0{fill:#FFFFFF;} .st1{fill:#ABAFBB;} </style> <rect class="st0" width="135" height="58"></rect> <g> <rect x="93" y="29" class="st1" width="1.2" height="1.1"></rect> <rect x="91.2" y="29" class="st1" width="1.2" height="1.1"></rect> <path class="st1" d="M107.4,26.5c0.5,0,1-0.2,1.3-0.6c0.3-0.4,0.4-0.8,0.4-1.3v-2.5h-1.3v2.1c0,0.6-0.2,0.9-0.7,0.9h-9.7 c-0.6,0-0.9-0.1-1.1-0.6c-0.4-0.8-1.2-1.4-2.2-1.3c-0.2,0-0.4,0-0.6,0v1.2c0.1,0,0.2,0,0.2,0c0.5,0,0.9,0.4,0.9,0.8c0,0,0,0,0,0 c0,0.9-1,1.5-2,1.5c-1.4,0-2.1-0.9-2.1-2.2v-1h-1.3v1.2c0,1.9,1.5,3.3,3.5,3.3c1.6,0,2.9-0.9,3.2-2.2c0.3,0.3,0.7,0.5,1.2,0.6 H107.4L107.4,26.5z"></path> <rect x="107.9" y="26.9" class="st1" width="1.2" height="1.1"></rect> <path class="st1" d="M114.4,25.2c0-1.5-0.7-2.4-2-2.9c-0.6-0.2-1.2-0.2-1.8-0.2v1.1c1.7,0,2.5,0.6,2.5,1.9h-3.5v1.3h4.8L114.4,25.2 z"></path> <rect x="60.9" y="19.2" class="st1" width="1.2" height="1.1"></rect> <rect x="59.1" y="19.2" class="st1" width="1.2" height="1.1"></rect> <rect x="67.2" y="26.9" class="st1" width="1.2" height="1.1"></rect> <rect x="65.4" y="26.9" class="st1" width="1.2" height="1.1"></rect> <path class="st1" d="M63.5,25.2c-0.5,0.1-0.9-0.3-1-0.8c0-0.1,0-0.2,0-0.2v-3c-1.7,0-2.6,0-2.6,0c-1.3,0-2,0.9-2,2.4 c0,1.3,0.7,2.3,1.9,2.3c0.7,0,1.1-0.2,1.4-0.6c0.2,0.7,0.9,1.2,1.6,1.2h13V26c0-2.3-1-3.7-2.8-3.9h-0.7l1.2-1.8H72l-1.9,3.1h2.4 c1,0,1.9,0.8,2,1.8h-6.1c0.1-0.3,0.2-0.6,0.2-1v-2.1h-1.3v2.2c0,0.6-0.2,0.9-0.7,0.9L63.5,25.2 M61.2,23.4c0,0.8-0.3,1.3-0.9,1.3 s-1-0.6-1-1.2c0-0.7,0.4-1.3,1-1.3h0.9L61.2,23.4z"></path> <rect x="78" y="20.3" class="st1" width="1.2" height="1.1"></rect> <path class="st1" d="M82.6,26.5H83c0.5,0,1-0.2,1.3-0.6c0.3-0.4,0.4-0.8,0.4-1.3v-4.3h-1.3v4c0,0.6-0.3,0.9-0.7,0.9h-1.5 c0-1.5-0.7-2.4-2-2.9c-0.6-0.2-1.2-0.2-1.8-0.2v1.1c1.7,0,2.4,0.6,2.4,1.9h-3.5v1.3L82.6,26.5L82.6,26.5z"></path> <rect x="85.1" y="20.3" class="st1" width="1.3" height="6.2"></rect> <path class="st1" d="M62.2,34c-0.2-0.1-0.4-0.2-0.6-0.3c-0.3-0.1-0.5-0.2-0.8-0.3c-0.2-0.1-0.5-0.1-0.6-0.2c-0.1,0-0.3-0.1-0.4-0.2 c-0.1,0-0.1-0.1-0.2-0.2c0-0.1,0-0.2,0-0.2l0,0c0-0.1,0.1-0.3,0.2-0.3c0.2-0.1,0.4-0.2,0.5-0.1c0.2,0,0.5,0,0.7,0.2 c0.3,0.1,0.5,0.2,0.8,0.4l0,0l0.7-1l0,0c-0.3-0.2-0.6-0.4-1-0.6c-0.4-0.1-0.8-0.2-1.2-0.2c-0.3,0-0.6,0-0.8,0.1 c-0.2,0.1-0.5,0.2-0.7,0.4s-0.3,0.3-0.4,0.6c-0.1,0.2-0.2,0.5-0.2,0.7l0,0c0,0.2,0,0.5,0.1,0.7c0.1,0.2,0.2,0.4,0.4,0.5 c0.2,0.1,0.4,0.2,0.6,0.3c0.3,0.1,0.5,0.2,0.8,0.2c0.2,0,0.4,0.1,0.6,0.2c0.1,0,0.2,0.1,0.3,0.2c0.1,0,0.1,0.1,0.2,0.2 c0,0.1,0,0.1,0,0.2v0c0,0.2-0.1,0.3-0.2,0.4c-0.2,0.1-0.4,0.2-0.6,0.1c-0.3,0-0.6-0.1-0.9-0.2c-0.3-0.1-0.6-0.3-0.8-0.5l0,0L58,36 h0c0.3,0.3,0.7,0.6,1.2,0.7c0.4,0.2,0.9,0.2,1.3,0.2c0.3,0,0.6,0,0.9-0.1c0.2-0.1,0.5-0.2,0.7-0.4c0.2-0.2,0.3-0.4,0.5-0.6 c0.1-0.2,0.2-0.5,0.2-0.8v0c0-0.2,0-0.5-0.1-0.7C62.4,34.3,62.3,34.1,62.2,34z"></path> <polygon class="st1" points="66.3,33.4 64.7,31 64.7,31 63.3,31 63.3,36.9 64.6,36.9 64.6,33.2 66.2,35.6 66.2,35.6 66.3,35.6 67.9,33.1 67.9,36.9 69.2,36.9 69.2,31 67.8,31 "></polygon> <path class="st1" d="M72.2,30.9l-2.5,6H71l0.5-1.3H74l0.5,1.3h1.4l-2.5-6H72.2z M72,34.4l0.7-1.8l0.7,1.8H72z"></path> <path class="st1" d="M81,34.1c0.2-0.3,0.4-0.7,0.4-1.2l0,0c0-0.5-0.2-1-0.5-1.4c-0.5-0.4-1.1-0.6-1.7-0.6h-2.7v5.9h1.3V35h1 l1.3,1.9h1.6l-1.4-2.1C80.4,34.7,80.7,34.4,81,34.1z M79.9,33c0,0.2-0.1,0.4-0.2,0.6c-0.2,0.2-0.5,0.2-0.7,0.2h-1.3v-1.6h1.2 c0.3,0,0.5,0.1,0.7,0.2C79.9,32.5,80,32.8,79.9,33L79.9,33z"></path> <polygon class="st1" points="81.6,32.2 83.4,32.2 83.4,36.9 84.7,36.9 84.7,32.2 86.5,32.2 86.5,31 81.6,31 "></polygon> <path class="st1" d="M93.7,31.8c-0.3-0.3-0.6-0.5-1-0.6C92.3,31,91.8,31,91.4,31h-2.3v5.9h2.3c0.4,0,0.9-0.1,1.3-0.2 c0.4-0.1,0.7-0.4,1-0.6c0.3-0.3,0.5-0.6,0.7-0.9c0.2-0.4,0.2-0.8,0.2-1.2v0c0-0.4-0.1-0.8-0.2-1.2C94.2,32.4,94,32.1,93.7,31.8z M93.2,34c0,0.2,0,0.5-0.1,0.7c-0.1,0.2-0.2,0.4-0.4,0.5s-0.3,0.3-0.5,0.3c-0.2,0.1-0.5,0.1-0.7,0.1h-1v-3.5h1c0.2,0,0.5,0,0.7,0.1 c0.2,0.1,0.4,0.2,0.5,0.4c0.2,0.2,0.3,0.3,0.4,0.5C93.1,33.5,93.2,33.7,93.2,34L93.2,34z"></path> <path class="st1" d="M99,34.4c0,0.4-0.1,0.7-0.3,1c-0.2,0.2-0.6,0.4-0.9,0.3c-0.3,0-0.7-0.1-0.9-0.3c-0.2-0.3-0.4-0.7-0.3-1.1V31 h-1.3v3.4c-0.2,1.3,0.7,2.5,2,2.6c0.2,0,0.3,0,0.5,0c0.4,0,0.7,0,1.1-0.2c0.3-0.1,0.6-0.3,0.8-0.5c0.2-0.2,0.4-0.5,0.5-0.8 c0.1-0.4,0.2-0.8,0.2-1.2V31H99L99,34.4z"></path> <path class="st1" d="M105.1,33.8c0.1,0,0.2-0.1,0.2-0.2c0.1-0.1,0.2-0.2,0.2-0.3c0.1-0.1,0.1-0.2,0.2-0.4c0-0.1,0.1-0.3,0.1-0.5 l0,0c0-0.4-0.1-0.7-0.4-1c-0.4-0.4-1-0.6-1.5-0.5h-2.7v5.9h2.8c0.3,0,0.6,0,0.9-0.1c0.2-0.1,0.5-0.2,0.7-0.3 c0.2-0.1,0.3-0.3,0.5-0.5c0.1-0.2,0.2-0.5,0.2-0.7v0c0-0.3-0.1-0.7-0.3-0.9C105.7,34.1,105.4,33.9,105.1,33.8z M102.5,32.2h1.2 c0.2,0,0.4,0,0.6,0.2c0.1,0.1,0.2,0.2,0.2,0.4l0,0c0,0.2-0.1,0.4-0.2,0.5c-0.2,0.1-0.4,0.2-0.7,0.1h-1.2L102.5,32.2L102.5,32.2z M104.9,35.1c0,0.2-0.1,0.4-0.2,0.5c-0.2,0.1-0.4,0.2-0.7,0.1h-1.5v-1.2h1.5c0.2,0,0.5,0,0.7,0.2C104.8,34.7,104.9,34.9,104.9,35.1 L104.9,35.1L104.9,35.1z"></path> <path class="st1" d="M108.8,30.9l-2.5,6h1.4l0.5-1.3h2.4l0.5,1.3h1.4l-2.5-6H108.8z M108.7,34.4l0.7-1.8l0.7,1.8H108.7z"></path> <rect x="113" y="31" class="st1" width="1.3" height="5.9"></rect> <path class="st1" d="M35.8,44.2c-8.4,0-15.2-6.8-15.2-15.2s6.8-15.2,15.2-15.2S51,20.6,51,29C50.9,37.4,44.2,44.2,35.8,44.2z M35.8,16.9c-6.7,0-12.2,5.4-12.2,12.2c0,6.7,5.4,12.2,12.2,12.2S47.9,35.7,47.9,29v0C47.9,22.3,42.5,16.9,35.8,16.9z"></path> <path class="st1" d="M36.1,37.8c-5.4,0-9.3-5-9.4-5.2l2.4-1.8c0,0,3.2,4,7.1,4l0,0c2.2,0,4.4-1.4,6.4-4l2.4,1.8 C42.3,36,39.3,37.8,36.1,37.8z"></path> </g> </svg> 