<?xml version="1.0" encoding="UTF-8"?> <!-- Generator: Adobe Illustrator 24.1.0, SVG Export Plug-In . SVG Version: 6.00 Build 0) --> <svg xmlns="http://www.w3.org/2000/svg" xmlns:xlink="http://www.w3.org/1999/xlink" version="1.1" id="Layer_1" x="0px" y="0px" viewBox="0 0 135 58" style="enable-background:new 0 0 135 58;" xml:space="preserve"> <style type="text/css"> .st0{fill:#FFFFFF;} .st1{fill:#ABAFBB;} </style> <rect class="st0" width="135" height="58"></rect> <g> <g> <g> <path class="st1" d="M74.3,38.2l-0.1-0.4c3-1,5.5-3,5.7-4.7l0-0.9c-0.8,1.6-2.7,3.2-5.1,3.9l-0.8,0.3l-0.1-0.4l0.8-0.3 c2.6-0.8,5.2-3,5.2-5.2c0-1.9-2.5-4-5.8-5l-1-0.3l0.1-0.4l1,0.3c3.6,1.1,6.1,3.4,6.1,5.5c0,0,0,0,0,0l0,0l0,2.1h0c0,0,0,0,0,0.1 c0,0,0,0.1,0,0.1C80.4,34.7,77.7,37,74.3,38.2z M74,35.6l-0.1-0.4c3.2-1.1,5.2-2.8,5.2-4.6c0-1.8-2.4-3.7-5.9-4.7l0.1-0.4 c3.7,1.1,6.3,3.2,6.3,5.2C79.6,32.5,77.4,34.5,74,35.6z M67.9,8.9L65.3,7l0.3-0.4l2.6,1.9L67.9,8.9z"></path> </g> <path class="st1" d="M74.5,37.9l0-1.9l0.3,0l0,1.9L74.5,37.9z M75,37.8l0-1.9l0.3,0l0,1.9L75,37.8z M75.5,37.5l0-1.9l0.3,0l0,1.9 L75.5,37.5z M76,37.3l0-1.9l0.3,0l0,1.9L76,37.3z M76.5,37.1l0-1.9l0.3,0l0,1.9L76.5,37.1z M77,36.7l0-1.9l0.3,0l0,1.9L77,36.7z M77.5,36.3l0-1.9l0.3,0l0,1.9L77.5,36.3z M78,35.9l0-1.9l0.3,0l0,1.9L78,35.9z M78.5,35.5l0-1.9l0.3,0l0,1.9L78.5,35.5z M78.9,35.1l0-1.9l0.3,0l0,1.9L78.9,35.1z M79.2,34.7l0-1.9l0.3,0l0,1.9L79.2,34.7z M79.6,34.1l0-1.9l0.3,0l0,1.9L79.6,34.1z"></path> <g> <path class="st1" d="M60.7,37.9c-3.5-1.1-6.1-3.5-6.1-5.5c0,0,0-0.1,0-0.1c0,0,0,0,0-0.1h0l0-1.8c0-0.1,0-0.2,0-0.3 c0-2.1,2.6-4.4,6.1-5.5l0.9-0.3l0.1,0.4L60.9,25c-3.3,1-5.8,3.2-5.8,5l0,0l0,0.3c0.2,1.7,2.1,3.9,5.2,4.9l0.8,0.3L60.9,36 l-0.8-0.3c-2.5-0.8-4.2-2.4-5-3.9l0,0.9c0.3,1.7,2.7,3.7,5.7,4.7L60.7,37.9z M61,35.4c-3.4-1.1-5.5-3-5.5-5c0-2,2.4-4,6.2-5.2 l0.1,0.4c-3.5,1.1-5.9,3-5.9,4.7c0,1.8,2,3.6,5.2,4.6L61,35.4z"></path> </g> <path class="st1" d="M60.5,37.6l-0.3,0l0-1.9l0.3,0L60.5,37.6z M60,37.5l-0.3,0l0-1.9l0.3,0L60,37.5z M59.5,37.3l-0.3,0l0-1.9 l0.3,0L59.5,37.3z M59,37.1l-0.3,0l0-1.9l0.3,0L59,37.1z M58.5,36.8l-0.3,0l0-1.9l0.3,0L58.5,36.8z M58,36.4l-0.3,0l0-1.9l0.3,0 L58,36.4z M57.5,36l-0.3,0l0-1.9l0.3,0L57.5,36z M57,35.6l-0.3,0l0-1.9l0.3,0L57,35.6z M56.5,35.2l-0.3,0l0-1.9l0.3,0L56.5,35.2z M56.1,34.9l-0.3,0l0-1.9l0.3,0L56.1,34.9z M55.8,34.4l-0.3,0l0-1.9l0.3,0L55.8,34.4z M55.4,33.8l-0.3,0l0-1.9l0.3,0L55.4,33.8z"></path> <polygon class="st1" points="74.1,40.9 71.6,8.5 69.9,7 70.2,6.7 72,8.3 74.5,40.9 "></polygon> <polygon class="st1" points="63.1,8.9 60.4,40.5 64.1,41.6 65.4,6.9 "></polygon> <path class="st1" d="M64.3,41.8l-4-1.1l2.7-31.8l2.6-2.2L64.3,41.8z M60.5,40.4l3.5,1l1.2-34.2l-2,1.7L60.5,40.4z"></path> <polygon class="st1" points="67.8,13.2 67.7,14.1 67.3,40.8 71.1,41.7 70.1,6.9 68,8.5 68,10.1 68.9,10.1 68.8,13.2 "></polygon> <path class="st1" d="M71.2,41.9l-4-1l0.4-26.8l0.1-1l1,0l0-2.8h-0.9l0-1.9l2.3-1.7L71.2,41.9z M67.5,40.7l3.5,0.8L70,7.2l-1.8,1.3 l0,1.4H69l0,3.3l-1,0l-0.1,0.8L67.5,40.7z"></path> <polygon class="st1" points="67.6,14.6 68.7,13.5 66.7,13.5 "></polygon> <path class="st1" d="M67.6,14.9l-1.5-1.6h3.1L67.6,14.9z M67.2,13.8l0.5,0.5l0.5-0.5H67.2z"></path> <path class="st1" d="M71.2,41.9l-0.1-0.4l3.3-1l0.1,0.4L71.2,41.9z M64.3,41.8l-0.1-0.4l3.1-0.9l0.1,0.4L64.3,41.8z M68.9,13.5 h-2.7V9.9h2.7V13.5z M66.6,13h1.8v-2.7h-1.8V13z"></path> </g> <g> <path class="st1" d="M106.8,51.1v-1.4l0.5-0.6l1,2h0.7l-1.3-2.5l1.2-1.5h-0.7l-1.4,1.8v-3.2h-0.6v5.4L106.8,51.1L106.8,51.1z M103.2,51.1v-2.7c0-0.3,0.1-0.5,0.2-0.6c0.2-0.2,0.4-0.2,0.6-0.2c0.2,0,0.3,0.1,0.4,0.2c0.1,0.1,0.1,0.3,0.1,0.5v2.9h0.6v-2.9 c0-0.4-0.1-0.7-0.2-0.9c-0.2-0.2-0.4-0.3-0.8-0.3c-0.2,0-0.5,0.1-0.6,0.2c-0.2,0.1-0.3,0.2-0.4,0.4v-0.5h-0.5v4L103.2,51.1 L103.2,51.1z M101.8,50.7L101.8,50.7C101.7,50.7,101.7,50.7,101.8,50.7c-0.2,0-0.2,0-0.3-0.1c0,0-0.1-0.1-0.1-0.2v-2.4 c0-0.4-0.1-0.7-0.3-0.8c-0.2-0.2-0.5-0.3-0.9-0.3c-0.4,0-0.7,0.1-0.9,0.3c-0.2,0.2-0.3,0.5-0.3,0.9h0.5v-0.1 c0-0.2,0.1-0.4,0.2-0.5c0.1-0.1,0.2-0.2,0.5-0.2s0.4,0,0.5,0.1c0.1,0.1,0.1,0.2,0.1,0.4v0.4c0,0.2-0.2,0.3-0.6,0.5h0 c-0.5,0.2-0.8,0.3-1,0.5c-0.2,0.2-0.2,0.4-0.2,0.8c0,0.4,0.1,0.6,0.2,0.8c0.2,0.2,0.4,0.3,0.7,0.3c0.2,0,0.4-0.1,0.6-0.2 c0.2-0.1,0.3-0.3,0.4-0.5c0,0.2,0.1,0.3,0.2,0.4c0.1,0.1,0.2,0.2,0.4,0.2c0,0,0.1,0,0.2,0c0.1,0,0.1,0,0.2,0L101.8,50.7z M100.9,49.7c0,0.3-0.1,0.5-0.2,0.7c-0.1,0.2-0.3,0.3-0.6,0.3c-0.2,0-0.3-0.1-0.4-0.2c-0.1-0.1-0.1-0.3-0.1-0.5 c0-0.2,0-0.4,0.1-0.5c0.1-0.1,0.2-0.2,0.5-0.3c0,0,0,0,0.1,0c0.3-0.1,0.5-0.2,0.6-0.3L100.9,49.7L100.9,49.7z M96.5,51.1 c0.5,0,0.9-0.1,1.2-0.4c0.3-0.3,0.4-0.7,0.4-1.1c0-0.4-0.1-0.7-0.2-0.9c-0.2-0.2-0.4-0.4-0.7-0.4c0.2-0.1,0.4-0.2,0.6-0.4 c0.1-0.2,0.2-0.5,0.2-0.8c0-0.5-0.1-0.8-0.3-1c-0.2-0.2-0.6-0.3-1.1-0.3H95v5.4H96.5z M95.6,48.5h0.7c0.4,0,0.7,0.1,0.9,0.2 c0.2,0.2,0.3,0.4,0.3,0.8c0,0.3-0.1,0.6-0.2,0.7c-0.2,0.2-0.4,0.2-0.8,0.2h-0.8L95.6,48.5L95.6,48.5z M95.6,46.2h0.6 c0.4,0,0.7,0.1,0.8,0.2c0.2,0.1,0.2,0.4,0.2,0.7c0,0.3-0.1,0.6-0.2,0.7c-0.2,0.1-0.4,0.2-0.8,0.2h-0.6L95.6,46.2L95.6,46.2z M91.3,49.8c0,0.3-0.1,0.5-0.2,0.7c-0.1,0.2-0.3,0.3-0.5,0.3c-0.3,0-0.4-0.1-0.6-0.3s-0.2-0.6-0.2-1.1v-0.2h2c0,0,0-0.1,0-0.1 c0-0.1,0-0.1,0-0.2c0-0.6-0.1-1.1-0.3-1.4C91.3,47.1,91,47,90.6,47c-0.5,0-0.8,0.2-1,0.5c-0.2,0.3-0.3,0.9-0.3,1.6 c0,0.7,0.1,1.2,0.3,1.6c0.2,0.3,0.5,0.5,1,0.5c0.4,0,0.7-0.1,0.9-0.4c0.2-0.2,0.3-0.6,0.3-1.1L91.3,49.8L91.3,49.8z M90.1,47.7 c0.1-0.2,0.3-0.3,0.6-0.3c0.2,0,0.4,0.1,0.5,0.3c0.1,0.2,0.2,0.5,0.2,0.8v0.1h-1.4C89.9,48.2,89.9,47.9,90.1,47.7 M87.5,51.1 l1.1-4H88l-0.8,3.2l-0.8-3.2h-0.6l1.1,4H87.5z M84,51.1v-2.5c0-0.3,0.1-0.6,0.2-0.8c0.2-0.2,0.4-0.3,0.7-0.3c0,0,0.1,0,0.1,0 c0,0,0.1,0,0.1,0V47c0,0-0.1,0-0.1,0s-0.1,0-0.2,0c-0.2,0-0.4,0.1-0.6,0.2c-0.2,0.1-0.3,0.3-0.4,0.6v-0.7h-0.5v4H84z M81.8,49.8 c0,0.3-0.1,0.5-0.2,0.7c-0.1,0.2-0.3,0.3-0.5,0.3c-0.3,0-0.4-0.1-0.6-0.3s-0.2-0.6-0.2-1.1v-0.2h2c0,0,0-0.1,0-0.1 c0-0.1,0-0.1,0-0.2c0-0.6-0.1-1.1-0.3-1.4c-0.2-0.3-0.5-0.4-0.9-0.4c-0.5,0-0.8,0.2-1,0.5c-0.2,0.3-0.3,0.9-0.3,1.6 c0,0.7,0.1,1.2,0.3,1.6s0.5,0.5,1,0.5c0.4,0,0.7-0.1,0.9-0.4c0.2-0.2,0.3-0.6,0.3-1.1L81.8,49.8L81.8,49.8L81.8,49.8z M80.6,47.7 c0.1-0.2,0.3-0.3,0.6-0.3c0.2,0,0.4,0.1,0.5,0.3c0.1,0.2,0.2,0.5,0.2,0.8v0.1h-1.4C80.4,48.2,80.5,47.9,80.6,47.7 M76.4,50 c0,0.4,0.1,0.7,0.3,0.9s0.5,0.3,0.9,0.3c0.4,0,0.8-0.1,1-0.3S79,50.4,79,50c0-0.3-0.1-0.5-0.2-0.7c-0.1-0.2-0.3-0.3-0.6-0.4 c-0.1,0-0.2-0.1-0.4-0.1c-0.3-0.1-0.5-0.2-0.6-0.3c-0.1,0-0.1-0.1-0.1-0.2c0-0.1,0-0.2,0-0.2c0-0.2,0.1-0.4,0.2-0.5 c0.1-0.1,0.3-0.2,0.5-0.2c0.2,0,0.4,0.1,0.5,0.2c0.1,0.1,0.2,0.3,0.2,0.5h0.5v-0.1c0-0.4-0.1-0.7-0.3-0.8C78.3,47.1,78,47,77.6,47 c-0.4,0-0.7,0.1-0.9,0.3c-0.2,0.2-0.3,0.5-0.3,0.8c0,0.3,0.1,0.6,0.2,0.7c0.2,0.2,0.5,0.3,1,0.5h0c0.5,0.2,0.7,0.4,0.7,0.7 c0,0.2-0.1,0.4-0.2,0.5c-0.1,0.1-0.3,0.2-0.5,0.2c-0.2,0-0.4-0.1-0.6-0.2s-0.2-0.3-0.2-0.5c0,0,0-0.1,0-0.1c0,0,0,0,0,0L76.4,50 L76.4,50L76.4,50z M74.9,49.8c0,0.3-0.1,0.5-0.2,0.7c-0.1,0.2-0.3,0.3-0.5,0.3c-0.3,0-0.4-0.1-0.6-0.3c-0.1-0.2-0.2-0.6-0.2-1.1 v-0.2h2c0,0,0-0.1,0-0.1c0-0.1,0-0.1,0-0.2c0-0.6-0.1-1.1-0.3-1.4c-0.2-0.3-0.5-0.4-0.9-0.4c-0.5,0-0.8,0.2-1,0.5 c-0.2,0.3-0.3,0.9-0.3,1.6c0,0.7,0.1,1.2,0.3,1.6s0.5,0.5,1,0.5c0.4,0,0.7-0.1,0.9-0.4c0.2-0.2,0.3-0.6,0.3-1.1L74.9,49.8 L74.9,49.8L74.9,49.8z M73.7,47.7c0.1-0.2,0.3-0.3,0.6-0.3c0.2,0,0.4,0.1,0.5,0.3c0.1,0.2,0.2,0.5,0.2,0.8v0.1h-1.4 C73.5,48.2,73.6,47.9,73.7,47.7 M69.3,51.1v-2.4h0.8c0.4,0,0.7,0.1,0.9,0.2c0.2,0.1,0.3,0.4,0.3,0.8c0,0.1,0,0.3,0,0.6 c0,0.5,0.1,0.7,0.2,0.9h0.8c-0.2-0.1-0.2-0.5-0.3-1.1c0-0.2,0-0.4,0-0.5c0-0.3-0.1-0.6-0.3-0.8c-0.2-0.2-0.4-0.3-0.7-0.3 c0.3-0.1,0.6-0.2,0.8-0.5c0.2-0.2,0.2-0.5,0.2-0.9c0-0.5-0.1-0.8-0.4-1c-0.3-0.2-0.7-0.3-1.3-0.3h-1.6v5.4L69.3,51.1L69.3,51.1z M69.3,46.3h0.9c0.4,0,0.7,0.1,0.9,0.2c0.2,0.2,0.3,0.4,0.3,0.7c0,0.3-0.1,0.6-0.3,0.8c-0.2,0.2-0.5,0.2-0.9,0.2h-0.7L69.3,46.3 L69.3,46.3z M63.5,51.1v-2.7c0-0.3,0.1-0.5,0.2-0.6c0.2-0.2,0.4-0.2,0.6-0.2c0.2,0,0.3,0.1,0.4,0.2c0.1,0.1,0.1,0.3,0.1,0.5v2.9 h0.6v-2.9c0-0.4-0.1-0.7-0.2-0.9c-0.2-0.2-0.4-0.3-0.8-0.3c-0.2,0-0.5,0.1-0.6,0.2c-0.2,0.1-0.3,0.2-0.4,0.4v-0.5h-0.5v4 L63.5,51.1L63.5,51.1z M62.1,50.7L62.1,50.7C62,50.7,62,50.7,62.1,50.7c-0.2,0-0.2,0-0.3-0.1c0,0-0.1-0.1-0.1-0.2v-2.4 c0-0.4-0.1-0.7-0.3-0.8C61.3,47.1,61,47,60.6,47c-0.4,0-0.7,0.1-0.9,0.3c-0.2,0.2-0.3,0.5-0.3,0.9H60v-0.1c0-0.2,0.1-0.4,0.2-0.5 c0.1-0.1,0.2-0.2,0.5-0.2s0.4,0,0.5,0.1s0.1,0.2,0.1,0.4v0.4c0,0.2-0.2,0.3-0.6,0.5h0c-0.5,0.2-0.8,0.3-1,0.5 c-0.2,0.2-0.2,0.4-0.2,0.8c0,0.4,0.1,0.6,0.2,0.8c0.2,0.2,0.4,0.3,0.7,0.3c0.2,0,0.4-0.1,0.6-0.2c0.2-0.1,0.3-0.3,0.4-0.5 c0,0.2,0.1,0.3,0.2,0.4c0.1,0.1,0.2,0.2,0.4,0.2c0,0,0.1,0,0.2,0c0.1,0,0.1,0,0.2,0L62.1,50.7z M61.2,49.7c0,0.3-0.1,0.5-0.2,0.7 c-0.1,0.2-0.3,0.3-0.6,0.3c-0.2,0-0.3-0.1-0.4-0.2c-0.1-0.1-0.1-0.3-0.1-0.5c0-0.2,0-0.4,0.1-0.5c0.1-0.1,0.2-0.2,0.5-0.3 c0,0,0,0,0.1,0c0.3-0.1,0.5-0.2,0.6-0.3L61.2,49.7L61.2,49.7z M57.6,50.5c-0.1,0.2-0.3,0.3-0.5,0.3c-0.3,0-0.5-0.1-0.6-0.4 c-0.1-0.2-0.2-0.7-0.2-1.3c0-0.6,0.1-1,0.2-1.2c0.1-0.2,0.3-0.4,0.6-0.4c0.2,0,0.4,0.1,0.5,0.2c0.1,0.2,0.2,0.4,0.2,0.6h0.6v-0.1 c0-0.4-0.1-0.7-0.3-0.9c-0.2-0.2-0.5-0.3-0.9-0.3c-0.5,0-0.8,0.2-1,0.5c-0.2,0.3-0.3,0.9-0.3,1.6c0,0.7,0.1,1.3,0.3,1.6 c0.2,0.3,0.6,0.5,1,0.5c0.4,0,0.7-0.1,1-0.4c0.2-0.3,0.3-0.6,0.3-1.1h-0.6C57.8,50,57.7,50.3,57.6,50.5 M54.7,47.1h-0.6v4h0.6 V47.1z M54.7,45.7h-0.6v0.7h0.6V45.7z M52.3,51.1v-2.5c0-0.3,0.1-0.6,0.2-0.8c0.2-0.2,0.4-0.3,0.7-0.3c0,0,0.1,0,0.1,0 c0,0,0.1,0,0.1,0V47c0,0-0.1,0-0.1,0c0,0-0.1,0-0.2,0c-0.2,0-0.4,0.1-0.6,0.2c-0.2,0.1-0.3,0.3-0.4,0.6v-0.7h-0.5v4H52.3z M50.4,51.1v-3.6H51v-0.5h-0.6v-0.5c0-0.1,0-0.2,0.1-0.3c0.1-0.1,0.2-0.1,0.3-0.1c0,0,0.1,0,0.1,0c0,0,0.1,0,0.1,0v-0.5 c-0.1,0-0.1,0-0.1,0c0,0-0.1,0-0.1,0c-0.3,0-0.6,0.1-0.7,0.2c-0.2,0.1-0.2,0.3-0.2,0.6v0.5h-0.6v0.5h0.6v3.6L50.4,51.1L50.4,51.1z M45.6,51.1l0.4-1.6h1.7l0.4,1.6h0.6l-1.5-5.4h-0.8L45,51.1H45.6z M46.9,46.2l0.7,2.8h-1.5L46.9,46.2z M40.2,51.1v-2.7 c0-0.3,0.1-0.5,0.2-0.6c0.2-0.2,0.4-0.2,0.6-0.2c0.2,0,0.3,0.1,0.4,0.2c0.1,0.1,0.1,0.3,0.1,0.5v2.9h0.6v-3.2 c0-0.3-0.1-0.5-0.3-0.7c-0.2-0.2-0.4-0.2-0.7-0.2c-0.2,0-0.4,0-0.6,0.1c-0.2,0.1-0.3,0.2-0.4,0.4v-1.8h-0.6v5.4L40.2,51.1 L40.2,51.1z M38.2,47.6h0.7v-0.5h-0.7V46h-0.6v1.1h-0.6v0.5h0.6v3c0,0.2,0.1,0.4,0.2,0.5c0.1,0.1,0.3,0.2,0.6,0.2c0,0,0.1,0,0.3,0 c0.1,0,0.1,0,0.1,0v-0.5c0,0,0,0-0.1,0c0,0,0,0-0.1,0c-0.2,0-0.4,0-0.4-0.1c-0.1-0.1-0.1-0.2-0.1-0.3L38.2,47.6L38.2,47.6z M36.4,51.1v-4h-0.6v2.7c0,0.3-0.1,0.5-0.2,0.7c-0.2,0.2-0.4,0.2-0.7,0.2c-0.2,0-0.3,0-0.4-0.1c-0.1-0.1-0.1-0.2-0.1-0.4v-3.1 h-0.6v3.1c0,0.4,0.1,0.6,0.2,0.8c0.2,0.2,0.4,0.2,0.7,0.2c0.2,0,0.5-0.1,0.6-0.2c0.2-0.1,0.3-0.3,0.4-0.5v0.5L36.4,51.1L36.4,51.1 z M30.8,47.8c0.1-0.2,0.3-0.4,0.6-0.4c0.3,0,0.5,0.1,0.6,0.4c0.1,0.2,0.2,0.7,0.2,1.3c0,0.6-0.1,1-0.2,1.3 c-0.1,0.2-0.3,0.4-0.6,0.4c-0.3,0-0.5-0.1-0.6-0.4c-0.1-0.2-0.2-0.7-0.2-1.3C30.6,48.5,30.7,48.1,30.8,47.8 M30.4,50.7 c0.2,0.3,0.6,0.5,1.1,0.5c0.5,0,0.9-0.2,1.1-0.5s0.3-0.9,0.3-1.6c0-0.7-0.1-1.3-0.3-1.6S32,47,31.5,47c-0.5,0-0.8,0.2-1.1,0.5 S30,48.4,30,49.1C30,49.8,30.1,50.4,30.4,50.7 M25.9,49.5C25.9,49.5,25.9,49.6,25.9,49.5c0,0.6,0.1,1,0.4,1.3 c0.3,0.3,0.7,0.4,1.2,0.4s0.9-0.1,1.2-0.4c0.3-0.3,0.4-0.7,0.4-1.2c0-0.2,0-0.5-0.1-0.6c-0.1-0.2-0.2-0.3-0.3-0.5 c-0.1-0.1-0.5-0.3-1-0.5c-0.1,0-0.2-0.1-0.2-0.1c-0.4-0.1-0.6-0.3-0.7-0.4c-0.1-0.1-0.2-0.3-0.2-0.6s0.1-0.5,0.2-0.6 c0.2-0.2,0.4-0.2,0.7-0.2c0.3,0,0.5,0.1,0.6,0.2c0.2,0.2,0.2,0.4,0.2,0.7v0.1h0.6c0,0,0,0,0-0.1s0-0.1,0-0.1c0-0.4-0.1-0.8-0.4-1 c-0.2-0.2-0.6-0.4-1.1-0.4c-0.5,0-0.8,0.1-1.1,0.4c-0.3,0.3-0.4,0.6-0.4,1.1c0,0.2,0,0.5,0.1,0.6c0.1,0.2,0.2,0.3,0.3,0.5 c0.1,0.1,0.4,0.2,0.8,0.4c0.2,0.1,0.3,0.1,0.4,0.1c0.4,0.1,0.6,0.3,0.7,0.4c0.1,0.1,0.2,0.3,0.2,0.6c0,0.3-0.1,0.6-0.3,0.7 c-0.2,0.2-0.4,0.3-0.7,0.3c-0.3,0-0.6-0.1-0.8-0.3c-0.2-0.2-0.3-0.5-0.3-0.8v-0.2L25.9,49.5C25.9,49.4,25.9,49.5,25.9,49.5"></path> <path class="st1" d="M34.9,51.4c-0.4,0-0.7-0.1-0.8-0.3c-0.2-0.2-0.3-0.5-0.3-0.9V47h0.9v3.2c0,0.1,0,0.2,0.1,0.3 c0.1,0.1,0.1,0.1,0.3,0.1c0.2,0,0.4-0.1,0.6-0.2c0.1-0.1,0.2-0.4,0.2-0.6V47h0.9v4.3h-0.8V51c-0.1,0.1-0.1,0.1-0.2,0.1 C35.4,51.3,35.1,51.4,34.9,51.4z M34,47.2v3c0,0.3,0.1,0.6,0.2,0.7c0.1,0.1,0.3,0.2,0.6,0.2c0.2,0,0.4,0,0.6-0.1 c0.2-0.1,0.3-0.2,0.3-0.4l0.3,0.1V51h0.3v-3.7H36v2.5c0,0.3-0.1,0.6-0.3,0.8c-0.2,0.2-0.4,0.3-0.8,0.3c-0.2,0-0.3-0.1-0.5-0.2 c-0.1-0.1-0.2-0.3-0.2-0.5v-3H34z M31.5,51.4c-0.5,0-0.9-0.2-1.2-0.6l0,0c-0.2-0.4-0.4-0.9-0.4-1.7c0-0.7,0.1-1.3,0.4-1.7 c0.3-0.4,0.7-0.6,1.2-0.6c0.5,0,0.9,0.2,1.2,0.6c0.2,0.4,0.4,0.9,0.4,1.7c0,0.8-0.1,1.3-0.4,1.7C32.4,51.2,32,51.4,31.5,51.4z M30.5,50.6c0.2,0.3,0.5,0.5,1,0.5c0.5,0,0.8-0.1,1-0.5c0.2-0.3,0.3-0.8,0.3-1.5c0-0.7-0.1-1.2-0.3-1.5c-0.2-0.3-0.5-0.5-1-0.5 c-0.4,0-0.8,0.2-1,0.5c-0.2,0.3-0.3,0.8-0.3,1.5C30.2,49.8,30.3,50.3,30.5,50.6z M27.5,51.4c-0.5,0-1-0.2-1.3-0.5 c-0.3-0.3-0.4-0.7-0.4-1.3v-0.3h0.9v0.3c0,0.3,0.1,0.6,0.2,0.7c0.1,0.2,0.4,0.2,0.7,0.2c0.3,0,0.5-0.1,0.6-0.2 c0.2-0.2,0.2-0.4,0.2-0.6c0-0.2,0-0.4-0.1-0.5c-0.1-0.1-0.2-0.2-0.6-0.4c-0.1,0-0.2-0.1-0.2-0.1l-0.1,0c-0.5-0.2-0.7-0.3-0.8-0.4 c-0.2-0.1-0.3-0.3-0.4-0.5c-0.1-0.2-0.1-0.4-0.1-0.7c0-0.5,0.1-0.9,0.4-1.2c0.3-0.3,0.7-0.4,1.2-0.4c0.5,0,0.9,0.1,1.1,0.4 c0.3,0.3,0.4,0.6,0.4,1.1v0.3h-0.8V47c0-0.3-0.1-0.5-0.2-0.6c-0.1-0.1-0.3-0.2-0.5-0.2c-0.2,0-0.4,0.1-0.6,0.2 c-0.1,0.1-0.2,0.3-0.2,0.5c0,0.2,0,0.4,0.1,0.5c0.1,0.1,0.2,0.2,0.7,0.4c0,0,0,0,0.1,0c0,0,0.1,0,0.1,0c0.3,0.1,0.9,0.3,1.1,0.5 c0.2,0.1,0.3,0.3,0.3,0.5c0.1,0.2,0.1,0.4,0.1,0.7c0,0.6-0.2,1-0.5,1.3C28.5,51.2,28,51.4,27.5,51.4z M26.1,49.5L26.1,49.5 c0,0.6,0.1,0.9,0.4,1.2c0.2,0.2,0.6,0.4,1.1,0.4c0.5,0,0.8-0.1,1.1-0.4c0.3-0.3,0.4-0.6,0.4-1.1c0-0.2,0-0.4-0.1-0.6 c-0.1-0.2-0.2-0.3-0.3-0.4c-0.1-0.1-0.4-0.2-1-0.4c0,0-0.1,0-0.1,0c0,0,0,0-0.1,0c-0.4-0.2-0.7-0.3-0.8-0.5 c-0.1-0.2-0.2-0.4-0.2-0.7c0-0.3,0.1-0.6,0.3-0.7c0.2-0.2,0.5-0.3,0.8-0.3c0.3,0,0.6,0.1,0.7,0.3c0.2,0.2,0.2,0.4,0.3,0.7l0.3,0 c0-0.4-0.1-0.7-0.3-0.9c-0.2-0.2-0.5-0.3-1-0.3c-0.4,0-0.8,0.1-1,0.4c-0.2,0.2-0.3,0.6-0.3,1c0,0.2,0,0.4,0.1,0.6 c0.1,0.2,0.2,0.3,0.3,0.4c0.1,0.1,0.4,0.2,0.8,0.3l0.1,0c0.1,0,0.2,0.1,0.3,0.1c0.4,0.1,0.6,0.3,0.8,0.5c0.1,0.1,0.2,0.4,0.2,0.7 c0,0.4-0.1,0.6-0.3,0.8c-0.2,0.2-0.5,0.3-0.8,0.3c-0.4,0-0.7-0.1-0.9-0.3c-0.2-0.2-0.3-0.5-0.3-0.9v0H26.1z M99.9,51.3 c-0.3,0-0.6-0.1-0.8-0.3c-0.2-0.2-0.3-0.5-0.3-0.9c0-0.4,0.1-0.7,0.3-0.9c0.2-0.2,0.5-0.4,1.1-0.6l0,0c0.5-0.2,0.5-0.3,0.5-0.3 v-0.4c0-0.1,0-0.2-0.1-0.3c-0.1-0.1-0.2-0.1-0.4-0.1c-0.2,0-0.3,0.1-0.4,0.1c-0.1,0.1-0.1,0.2-0.1,0.4v0.2H99l0-0.1 c0-0.5,0.1-0.8,0.3-1c0.2-0.2,0.6-0.3,1-0.3c0.4,0,0.7,0.1,1,0.3c0.2,0.2,0.3,0.5,0.3,0.9v2.4c0,0.1,0,0.1,0,0.1l0,0 c0,0,0,0,0.1,0c0,0,0,0,0,0l0,0h0.2l0,0.1v0.5l-0.2,0c-0.1,0-0.1,0-0.1,0c-0.1,0-0.1,0-0.2,0c-0.2,0-0.3-0.1-0.5-0.2 c0,0-0.1-0.1-0.1-0.2c-0.1,0.1-0.2,0.2-0.3,0.2C100.4,51.3,100.2,51.3,99.9,51.3z M100.2,48.9c-0.6,0.2-0.8,0.4-0.9,0.5 c-0.1,0.2-0.2,0.4-0.2,0.7c0,0.3,0.1,0.6,0.2,0.7c0.1,0.2,0.3,0.2,0.6,0.2c0.2,0,0.4,0,0.5-0.1c0.1-0.1,0.3-0.2,0.3-0.4l0.3,0 c0,0.2,0,0.3,0.1,0.3c0.1,0.1,0.2,0.1,0.3,0.1c0,0,0.1,0,0.1,0l0,0c0,0,0,0,0.1,0v-0.2c-0.1,0-0.2-0.1-0.2-0.1 c-0.1-0.1-0.1-0.2-0.1-0.3v-2.4c0-0.3-0.1-0.6-0.2-0.7c-0.2-0.2-0.4-0.2-0.8-0.2c-0.4,0-0.6,0.1-0.8,0.2c-0.1,0.1-0.2,0.4-0.3,0.7 h0.3c0-0.2,0.1-0.4,0.2-0.5c0.2-0.2,0.4-0.2,0.6-0.2c0.2,0,0.4,0,0.5,0.1c0.1,0.1,0.2,0.3,0.2,0.5v0.4 C101,48.5,100.7,48.7,100.2,48.9L100.2,48.9z M90.6,51.3c-0.5,0-0.9-0.2-1.1-0.6c-0.2-0.4-0.3-0.9-0.3-1.6c0-0.8,0.1-1.3,0.3-1.7 c0.3-0.4,0.6-0.6,1.1-0.6c0.5,0,0.8,0.2,1.1,0.5c0.2,0.3,0.3,0.8,0.3,1.4v0.5h-2v0.1c0,0.5,0.1,0.8,0.2,1c0.1,0.2,0.2,0.3,0.4,0.3 c0.2,0,0.3-0.1,0.4-0.2c0.1-0.1,0.2-0.4,0.2-0.6v-0.2H92v0.1c0,0.5-0.1,0.9-0.4,1.2C91.3,51.2,91,51.3,90.6,51.3z M90.6,47.1 c-0.4,0-0.7,0.1-0.9,0.5c-0.2,0.3-0.3,0.9-0.3,1.6c0,0.7,0.1,1.2,0.3,1.5c0.2,0.3,0.5,0.4,0.9,0.4c0.4,0,0.6-0.1,0.8-0.3 c0.2-0.2,0.3-0.5,0.3-0.9h-0.3c0,0.3-0.1,0.5-0.2,0.7c-0.1,0.2-0.3,0.3-0.6,0.3c-0.3,0-0.5-0.1-0.7-0.4c-0.1-0.3-0.2-0.6-0.2-1.2 V49l2,0v-0.2c0-0.6-0.1-1-0.3-1.3C91.2,47.2,90.9,47.1,90.6,47.1z M81.1,51.3c-0.5,0-0.9-0.2-1.1-0.6c-0.2-0.4-0.3-0.9-0.3-1.6 c0-0.8,0.1-1.3,0.3-1.7c0.3-0.4,0.6-0.6,1.1-0.6c0.5,0,0.8,0.2,1.1,0.5c0.2,0.3,0.3,0.8,0.3,1.4v0.5h-2v0.1c0,0.5,0.1,0.8,0.2,1 c0.1,0.2,0.2,0.3,0.4,0.3c0.2,0,0.3-0.1,0.4-0.2c0.1-0.1,0.1-0.3,0.2-0.5h0v-0.3h0.8v0.1c0,0.5-0.1,0.9-0.4,1.2 C81.9,51.2,81.6,51.3,81.1,51.3z M81.1,47.1c-0.4,0-0.7,0.1-0.9,0.5c-0.2,0.3-0.3,0.9-0.3,1.6c0,0.7,0.1,1.2,0.3,1.5 c0.2,0.3,0.5,0.4,0.9,0.4c0.4,0,0.6-0.1,0.8-0.3c0.2-0.2,0.3-0.5,0.3-0.9H82c0,0.3-0.1,0.5-0.2,0.7c-0.1,0.2-0.3,0.3-0.6,0.3 c-0.3,0-0.5-0.1-0.7-0.4c-0.1-0.3-0.2-0.6-0.2-1.2V49l2,0v-0.2c0-0.6-0.1-1-0.3-1.3C81.8,47.2,81.5,47.1,81.1,47.1z M77.6,51.3 c-0.4,0-0.8-0.1-1-0.4c-0.2-0.2-0.3-0.6-0.3-1l0-0.2h0.8l0,0.2c0,0,0,0,0,0.1c0,0.2,0,0.3,0.1,0.4c0.1,0.1,0.3,0.1,0.5,0.1 c0.2,0,0.3-0.1,0.4-0.1c0.1-0.1,0.1-0.2,0.1-0.4c0-0.3-0.3-0.5-0.6-0.6h0l0,0c-0.5-0.2-0.9-0.4-1-0.5c-0.2-0.2-0.3-0.5-0.3-0.8 c0-0.4,0.1-0.7,0.4-0.9c0.2-0.2,0.6-0.3,1-0.3c0.4,0,0.8,0.1,1,0.3c0.2,0.2,0.3,0.5,0.3,0.9v0.2h-0.8l0-0.1c0-0.2-0.1-0.4-0.1-0.4 c-0.1-0.1-0.2-0.1-0.4-0.1c-0.2,0-0.3,0-0.4,0.1c-0.1,0.1-0.1,0.2-0.1,0.4c0,0.1,0,0.1,0,0.2c0,0.1,0,0.1,0.1,0.1 c0.1,0,0.2,0.1,0.6,0.3c0.2,0,0.3,0.1,0.4,0.1c0.3,0.1,0.5,0.2,0.7,0.4c0.1,0.2,0.2,0.4,0.2,0.7c0,0.4-0.1,0.8-0.4,1 C78.4,51.2,78.1,51.3,77.6,51.3z M76.5,50c0,0.3,0.1,0.6,0.3,0.8c0.2,0.2,0.5,0.3,0.8,0.3c0.4,0,0.7-0.1,0.9-0.3 c0.2-0.2,0.3-0.5,0.3-0.8c0-0.2-0.1-0.4-0.2-0.6c-0.1-0.2-0.3-0.3-0.5-0.4l0,0c-0.1,0-0.2-0.1-0.4-0.1c-0.3-0.1-0.5-0.2-0.7-0.3 c-0.1-0.1-0.1-0.1-0.2-0.2c0-0.1,0-0.2,0-0.3c0-0.2,0.1-0.4,0.2-0.6c0.1-0.1,0.3-0.2,0.6-0.2c0.2,0,0.4,0.1,0.6,0.2 c0.1,0.1,0.2,0.3,0.2,0.5h0.3c0-0.3-0.1-0.5-0.3-0.6c-0.2-0.2-0.4-0.2-0.8-0.2c-0.3,0-0.6,0.1-0.8,0.3c-0.2,0.2-0.3,0.4-0.3,0.7 c0,0.3,0.1,0.5,0.2,0.6c0.1,0.1,0.4,0.3,0.9,0.5l0,0c0.7,0.2,0.8,0.6,0.8,0.8c0,0.2-0.1,0.4-0.2,0.6c-0.2,0.1-0.4,0.2-0.6,0.2 c-0.3,0-0.5-0.1-0.6-0.2c-0.2-0.1-0.2-0.3-0.2-0.6c0,0,0,0,0,0H76.5z M74.2,51.3c-0.5,0-0.9-0.2-1.1-0.6c-0.2-0.4-0.3-0.9-0.3-1.6 c0-0.8,0.1-1.3,0.3-1.7c0.3-0.4,0.6-0.6,1.1-0.6c0.5,0,0.8,0.2,1.1,0.5c0.2,0.3,0.3,0.8,0.3,1.4v0.5h-2v0.1c0,0.5,0.1,0.8,0.2,1 c0.1,0.2,0.2,0.3,0.4,0.3c0.2,0,0.3-0.1,0.4-0.2c0.1-0.1,0.1-0.3,0.2-0.5h0v-0.3h0.8v0.1c0,0.5-0.1,0.9-0.4,1.2 C75,51.2,74.6,51.3,74.2,51.3z M74.2,47.1c-0.4,0-0.7,0.1-0.9,0.5c-0.2,0.3-0.3,0.9-0.3,1.6c0,0.7,0.1,1.2,0.3,1.5 c0.2,0.3,0.5,0.4,0.9,0.4c0.4,0,0.6-0.1,0.8-0.3c0.2-0.2,0.3-0.5,0.3-0.9H75c0,0.3-0.1,0.5-0.2,0.7c-0.1,0.2-0.3,0.3-0.6,0.3 c-0.3,0-0.5-0.1-0.7-0.4c-0.1-0.3-0.2-0.6-0.2-1.2V49l2,0v-0.2c0-0.6-0.1-1-0.3-1.3C74.8,47.2,74.6,47.1,74.2,47.1z M60.2,51.3 c-0.3,0-0.6-0.1-0.8-0.3c-0.2-0.2-0.3-0.5-0.3-0.9c0-0.4,0.1-0.7,0.3-0.9c0.2-0.2,0.5-0.4,1.1-0.6l0,0c0.5-0.2,0.5-0.3,0.5-0.3 v-0.4c0-0.1,0-0.2-0.1-0.3c-0.1-0.1-0.2-0.1-0.4-0.1c-0.2,0-0.3,0.1-0.4,0.1c-0.1,0.1-0.1,0.2-0.1,0.4v0.2h-0.8l0-0.1 c0-0.5,0.1-0.8,0.3-1c0.2-0.2,0.6-0.3,1-0.3c0.4,0,0.7,0.1,1,0.3c0.2,0.2,0.3,0.5,0.3,0.9v2.4c0,0.1,0,0.1,0,0.1l0,0 c0,0,0,0,0.1,0c0,0,0,0,0,0l0,0h0.2l0,0.1v0.5l-0.2,0c0,0-0.1,0-0.1,0c-0.1,0-0.1,0-0.2,0c-0.2,0-0.4-0.1-0.5-0.2 c0,0-0.1-0.1-0.1-0.2c-0.1,0.1-0.2,0.2-0.2,0.2C60.7,51.3,60.5,51.3,60.2,51.3z M60.5,48.9c-0.6,0.2-0.8,0.4-0.9,0.5 c-0.1,0.2-0.2,0.4-0.2,0.7c0,0.3,0.1,0.6,0.2,0.7c0.1,0.2,0.3,0.2,0.6,0.2c0.2,0,0.4,0,0.5-0.1c0.1-0.1,0.2-0.2,0.3-0.4 c0,0,0,0,0,0c-0.2,0.2-0.4,0.3-0.7,0.3c-0.2,0-0.4-0.1-0.5-0.2c-0.1-0.2-0.2-0.3-0.2-0.6c0-0.2,0-0.4,0.1-0.6 c0.1-0.2,0.3-0.3,0.6-0.4c0,0,0,0,0,0l0,0c0.3-0.1,0.5-0.2,0.5-0.3l0.2-0.3l0,1.2c0,0.3-0.1,0.6-0.2,0.8l0.3,0 c0,0.2,0,0.3,0.1,0.3c0.1,0.1,0.2,0.1,0.3,0.1c0,0,0.1,0,0.1,0l0,0c0,0,0,0,0.1,0v-0.2c-0.1,0-0.2-0.1-0.2-0.1 c-0.1-0.1-0.1-0.2-0.1-0.3v-2.4c0-0.3-0.1-0.6-0.2-0.7c-0.2-0.2-0.4-0.2-0.8-0.2c-0.4,0-0.6,0.1-0.8,0.2c-0.1,0.1-0.2,0.4-0.3,0.7 h0.3c0-0.2,0.1-0.4,0.2-0.5c0.2-0.2,0.4-0.2,0.6-0.2c0.2,0,0.4,0,0.5,0.1c0.1,0.1,0.2,0.3,0.2,0.5v0.4 C61.3,48.5,61,48.7,60.5,48.9L60.5,48.9z M60.5,49.4c-0.3,0.1-0.4,0.2-0.4,0.3C60,49.7,60,49.9,60,50.1c0,0.2,0,0.3,0.1,0.4 c0.1,0.1,0.2,0.1,0.3,0.1c0.2,0,0.4-0.1,0.5-0.2C61,50.2,61,50,61,49.7l0-0.6C60.9,49.2,60.8,49.3,60.5,49.4 C60.6,49.4,60.6,49.4,60.5,49.4C60.6,49.4,60.6,49.4,60.5,49.4z M57,51.3c-0.5,0-0.9-0.2-1.1-0.6c-0.2-0.4-0.4-0.9-0.4-1.7 c0-0.7,0.1-1.3,0.4-1.6c0.3-0.4,0.6-0.6,1.2-0.6c0.4,0,0.8,0.1,1,0.4c0.2,0.3,0.4,0.6,0.4,1v0.2h-0.8v-0.1c0-0.2-0.1-0.4-0.2-0.6 c-0.1-0.1-0.2-0.2-0.4-0.2c-0.2,0-0.4,0.1-0.5,0.3c-0.1,0.2-0.2,0.6-0.2,1.2c0,0.6,0.1,1,0.2,1.2c0.1,0.2,0.3,0.3,0.5,0.3 c0.2,0,0.3-0.1,0.4-0.2l0,0c0.1-0.1,0.2-0.4,0.1-0.7l0-0.1h0.8v0.1c0,0.5-0.1,0.9-0.4,1.2C57.8,51.2,57.5,51.3,57,51.3z M57.1,47.1c-0.4,0-0.7,0.1-0.9,0.5c-0.2,0.3-0.3,0.8-0.3,1.5c0,0.7,0.1,1.2,0.3,1.5c0.2,0.3,0.5,0.5,0.9,0.5 c0.4,0,0.7-0.1,0.9-0.4c0.2-0.2,0.3-0.5,0.3-0.9h-0.3c0,0.3-0.1,0.6-0.2,0.7c-0.1,0.2-0.3,0.3-0.6,0.3c-0.3,0-0.6-0.2-0.7-0.4 c-0.1-0.3-0.2-0.7-0.2-1.3c0-0.6,0.1-1,0.2-1.3c0.1-0.3,0.4-0.4,0.7-0.4c0.3,0,0.4,0.1,0.6,0.3c0.1,0.2,0.2,0.4,0.2,0.6h0.3 c0-0.3-0.1-0.6-0.3-0.8C57.7,47.2,57.4,47.1,57.1,47.1z M38.5,51.3c-0.3,0-0.5-0.1-0.7-0.2c-0.2-0.1-0.2-0.3-0.2-0.6v-2.9H37V47 h0.6v-1.1h0.8V47H39v0.7h-0.7v2.6c0,0.1,0,0.2,0.1,0.2c0,0,0.1,0,0.4,0H39v0.8h-0.3C38.6,51.3,38.5,51.3,38.5,51.3z M37.3,47.4 h0.6v3.1c0,0.2,0.1,0.3,0.1,0.4c0.1,0.1,0.3,0.1,0.5,0.1c0,0,0.1,0,0.3,0l0,0l0-0.2c-0.3,0-0.4,0-0.5-0.1l0,0 c-0.1-0.1-0.1-0.2-0.1-0.4v-2.8h0.7v-0.2h-0.7v-1.1h-0.3v1.1h-0.6V47.4z M103.3,51.3h-0.9V47h0.8v0.2c0.1-0.1,0.1-0.1,0.2-0.1 c0.2-0.1,0.4-0.2,0.7-0.2c0.4,0,0.7,0.1,0.9,0.3c0.2,0.2,0.3,0.6,0.3,1v3h-0.9v-3.1c0-0.2,0-0.3-0.1-0.4c-0.1-0.1-0.2-0.1-0.3-0.1 c-0.2,0-0.4,0.1-0.5,0.2c-0.1,0.1-0.2,0.3-0.2,0.5V51.3z M102.7,51h0.3v-2.6c0-0.3,0.1-0.6,0.3-0.7c0.2-0.2,0.4-0.3,0.7-0.3 c0.2,0,0.4,0.1,0.5,0.2c0.1,0.1,0.2,0.3,0.2,0.6V51h0.3v-2.8c0-0.4-0.1-0.7-0.2-0.8c-0.1-0.1-0.3-0.2-0.7-0.2 c-0.2,0-0.4,0-0.6,0.1c-0.1,0.1-0.3,0.2-0.3,0.4l-0.3-0.1v-0.4h-0.3V51z M72.6,51.3h-1.2l0-0.1c-0.1-0.1-0.1-0.4-0.2-0.9 c0-0.2,0-0.4,0-0.5c0-0.3-0.1-0.6-0.2-0.7c-0.1-0.1-0.4-0.2-0.8-0.2h-0.6v2.4h-0.9v-5.6h1.7c0.6,0,1,0.1,1.3,0.4 c0.3,0.2,0.5,0.6,0.5,1.1c0,0.4-0.1,0.7-0.3,0.9c-0.1,0.1-0.2,0.3-0.4,0.4c0.1,0.1,0.2,0.1,0.3,0.2c0.2,0.2,0.3,0.5,0.3,0.9 c0,0.1,0,0.3,0,0.5c0.1,0.7,0.2,0.9,0.2,1L72.6,51.3z M71.5,51h0.4c-0.1-0.2-0.1-0.5-0.2-0.9c0-0.2,0-0.4,0-0.5 c0-0.3-0.1-0.6-0.2-0.7c-0.1-0.1-0.3-0.2-0.6-0.2l0-0.3c0.3-0.1,0.6-0.2,0.7-0.4c0.1-0.2,0.2-0.5,0.2-0.8c0-0.4-0.1-0.7-0.4-0.9 c-0.3-0.2-0.7-0.3-1.2-0.3h-1.4V51h0.3v-2.4h0.9c0.5,0,0.8,0.1,1,0.2c0.2,0.2,0.3,0.4,0.3,0.9c0,0.1,0,0.3,0,0.6 C71.4,50.4,71.4,50.8,71.5,51z M63.6,51.3h-0.9V47h0.8v0.2c0.1-0.1,0.1-0.1,0.2-0.1c0.2-0.1,0.4-0.2,0.7-0.2 c0.4,0,0.7,0.1,0.9,0.3c0.2,0.2,0.3,0.6,0.3,1v3h-0.9v-3.1c0-0.2,0-0.3-0.1-0.4c0-0.1-0.1-0.1-0.3-0.1c-0.2,0-0.4,0.1-0.5,0.2 c-0.1,0.1-0.2,0.3-0.2,0.5V51.3z M63,51h0.3v-2.6c0-0.3,0.1-0.6,0.3-0.7c0.2-0.2,0.4-0.3,0.7-0.3c0.2,0,0.4,0.1,0.5,0.2 c0.1,0.1,0.2,0.3,0.2,0.6V51h0.3v-2.8c0-0.4-0.1-0.7-0.2-0.8c-0.1-0.1-0.3-0.2-0.7-0.2c-0.2,0-0.4,0-0.6,0.1 c-0.1,0.1-0.3,0.2-0.3,0.4l-0.3-0.1v-0.4H63V51z M96.5,51.3h-1.6v-5.6h1.6c0.5,0,0.9,0.1,1.2,0.4c0.3,0.2,0.4,0.6,0.4,1.1 c0,0.3-0.1,0.6-0.2,0.8c-0.1,0.1-0.2,0.2-0.3,0.3c0.2,0.1,0.3,0.2,0.4,0.4c0.2,0.3,0.2,0.6,0.2,1c0,0.5-0.2,0.9-0.5,1.2 C97.4,51.1,97,51.3,96.5,51.3z M95.1,51h1.3c0.5,0,0.8-0.1,1.1-0.4c0.2-0.2,0.4-0.6,0.4-1c0-0.3-0.1-0.6-0.2-0.8 c-0.1-0.2-0.3-0.3-0.6-0.4l0-0.3c0.2-0.1,0.4-0.2,0.5-0.3c0.1-0.2,0.2-0.4,0.2-0.7c0-0.4-0.1-0.7-0.3-0.9c-0.2-0.2-0.6-0.3-1-0.3 h-1.3V51z M87.6,51.3h-0.8L85.6,47h0.9l0.7,2.8l0.7-2.8h0.9L87.6,51.3z M86.9,51h0.4l1.1-3.7h-0.3l-0.8,3.1l-0.3,0l-0.8-3.1h-0.3 L86.9,51z M84.1,51.3h-0.8V47h0.8v0.3c0-0.1,0.1-0.1,0.2-0.1c0.2-0.2,0.4-0.2,0.7-0.2h0.2c0,0,0,0,0.1,0c0,0,0,0,0,0l0.1,0l0,0.1 v0.9l-0.2-0.2c0,0,0,0,0,0c0,0,0,0,0,0c0,0,0,0-0.1,0c-0.3,0-0.4,0.1-0.6,0.2c-0.1,0.2-0.2,0.4-0.2,0.7V51.3z M83.6,51h0.3v-2.3 c0-0.4,0.1-0.7,0.3-0.9c0.2-0.2,0.5-0.3,0.8-0.3c0,0,0.1,0,0.1,0v-0.3h-0.1c-0.2,0-0.3,0.1-0.5,0.2c-0.1,0.1-0.3,0.3-0.3,0.5 l-0.3,0v-0.5h-0.3V51z M52.5,51.3h-0.8V47h0.8v0.3c0-0.1,0.1-0.1,0.2-0.1c0.2-0.2,0.4-0.2,0.7-0.2h0.2c0,0,0,0,0.1,0c0,0,0,0,0,0 l0.1,0l0,0.1v0.9l-0.2-0.2c0,0,0,0,0,0c0,0,0,0,0,0c0,0,0,0-0.1,0c-0.3,0-0.4,0.1-0.6,0.2c-0.1,0.2-0.2,0.4-0.2,0.7V51.3z M51.9,51h0.3v-2.3c0-0.4,0.1-0.7,0.3-0.9c0.2-0.2,0.5-0.3,0.8-0.3c0,0,0.1,0,0.1,0v-0.3h-0.1c-0.2,0-0.3,0.1-0.5,0.2 c-0.1,0.1-0.3,0.3-0.3,0.5l-0.3,0v-0.5h-0.3V51z M49,51.3h-0.9l-0.4-1.6h-1.5l-0.4,1.6h-0.9l1.6-5.6h1L49,51.3z M48.3,51h0.3 l-1.4-5.1h-0.6L45.2,51h0.3l0.4-1.6h1.9L48.3,51z M42.3,51.3h-0.9v-3.1c0-0.2,0-0.3-0.1-0.4c0-0.1-0.1-0.1-0.3-0.1 c-0.2,0-0.4,0.1-0.5,0.2c-0.1,0.1-0.2,0.3-0.2,0.5v2.7h-0.1v0.1h-0.7v-5.6h0.9v1.6c0.1-0.1,0.1-0.1,0.2-0.1 c0.2-0.1,0.4-0.1,0.6-0.1c0.4,0,0.6,0.1,0.8,0.3c0.2,0.2,0.3,0.4,0.3,0.8V51.3z M41.7,51h0.3v-3.1c0-0.3-0.1-0.4-0.2-0.6 c-0.1-0.1-0.3-0.2-0.6-0.2c-0.2,0-0.4,0-0.5,0.1c-0.1,0.1-0.3,0.2-0.4,0.3L40.1,48v-2.1h-0.3V51h0.3v-2.6c0-0.3,0.1-0.5,0.3-0.7 c0.2-0.2,0.4-0.3,0.7-0.3c0.2,0,0.4,0.1,0.5,0.2c0.1,0.1,0.2,0.3,0.2,0.6V51z M109.2,51.2h-1l-1-1.9l-0.3,0.4v1.4h-0.1v0.1h-0.7 v-5.6h0.8v2.9l1.2-1.6h1l-1.3,1.7L109.2,51.2z M108.4,51h0.4l-1.3-2.4l1.1-1.4h-0.3l-1.6,2.1v-3.4h-0.3V51h0.3v-1.3l0.6-0.7 L108.4,51z M54.8,51.2H54V47h0.9V51.2z M54.2,51h0.3v-3.7h-0.3V51z M50.4,51.2h-0.7v-3.6H49V47h0.6v-0.4c0-0.3,0.1-0.6,0.3-0.7 c0.2-0.2,0.5-0.2,0.8-0.2h0.1l0,0c0,0,0,0,0,0c0,0,0.1,0,0.1,0l0.1,0v0.7H51c0,0-0.1,0-0.1,0c0,0,0,0,0,0h-0.1c-0.1,0-0.2,0-0.2,0 c0,0,0,0.1,0,0.2V47h0.6v0.7h-0.6v3.4h-0.1V51.2z M49.9,51h0.3v-3.5h0.6v-0.2h-0.6v-0.7c0-0.2,0-0.3,0.1-0.4 c0.1-0.1,0.2-0.1,0.4-0.1h0.1v-0.2c0,0,0,0,0,0h-0.1c-0.3,0-0.5,0.1-0.6,0.2c-0.1,0.1-0.2,0.3-0.2,0.5v0.7h-0.6v0.2h0.6V51z M31.5,50.9c-0.4,0-0.6-0.2-0.8-0.4c-0.1-0.3-0.2-0.7-0.2-1.3c0-0.7,0.1-1.1,0.2-1.3c0.1-0.3,0.4-0.4,0.8-0.4 c0.3,0,0.6,0.1,0.8,0.4c0.1,0.3,0.2,0.7,0.2,1.3c0,0.6-0.1,1-0.2,1.3C32.1,50.7,31.8,50.9,31.5,50.9z M31.5,47.6 c-0.3,0-0.4,0.1-0.5,0.3l0,0c-0.1,0.2-0.2,0.6-0.2,1.2c0,0.6,0.1,1,0.2,1.2c0.1,0.2,0.3,0.3,0.5,0.3c0.3,0,0.4-0.1,0.5-0.3 c0.1-0.2,0.2-0.6,0.2-1.2c0-0.5-0.1-1-0.2-1.2C31.9,47.7,31.7,47.6,31.5,47.6z M100.1,50.8c-0.2,0-0.4-0.1-0.5-0.2 c-0.1-0.1-0.2-0.3-0.2-0.6c0-0.2,0-0.4,0.1-0.6c0.1-0.2,0.3-0.3,0.6-0.4c0,0,0,0,0,0l0,0c0.3-0.1,0.5-0.2,0.5-0.3l0.2-0.3v1.3h0 c0,0.3-0.1,0.5-0.2,0.7C100.6,50.7,100.4,50.8,100.1,50.8z M100.2,49.4c-0.3,0.1-0.4,0.2-0.4,0.3c-0.1,0.1-0.1,0.2-0.1,0.4 c0,0.2,0,0.3,0.1,0.4c0,0.1,0.1,0.1,0.3,0.1c0.2,0,0.4-0.1,0.5-0.2c0.1-0.1,0.2-0.4,0.2-0.6v-0.1h0v-0.4 C100.6,49.2,100.5,49.3,100.2,49.4C100.3,49.4,100.3,49.4,100.2,49.4C100.3,49.4,100.3,49.4,100.2,49.4z M96.3,50.7h-0.9v-2.2h0.1 v-0.1h0.7c0.5,0,0.8,0.1,1,0.3c0.2,0.2,0.3,0.5,0.3,0.9c0,0.4-0.1,0.7-0.3,0.8C97,50.6,96.7,50.7,96.3,50.7z M95.7,50.4h0.6 c0.3,0,0.6-0.1,0.7-0.2c0.1-0.1,0.2-0.3,0.2-0.6c0-0.4-0.1-0.6-0.2-0.7c-0.2-0.1-0.4-0.2-0.8-0.2h-0.5V50.4z M47.8,49.1H46l0.8-3 l0.3,0L47.8,49.1z M46.4,48.9h1.1l-0.6-2.1L46.4,48.9z M91.4,48.8h-1.6l0-0.1c0-0.4,0-0.8,0.2-1l0,0l0,0c0,0,0,0,0,0 c0.1-0.2,0.4-0.4,0.7-0.4c0.3,0,0.5,0.1,0.6,0.3c0.1,0.2,0.2,0.5,0.2,0.9V48.8z M90,48.5h1.1c0-0.3-0.1-0.6-0.1-0.7 c-0.1-0.1-0.2-0.2-0.4-0.2c-0.2,0-0.3,0.1-0.4,0.2v0C90.1,48,90,48.2,90,48.5z M82,48.8h-1.6l0-0.1c0-0.4,0-0.7,0.2-1l0,0 c0.1-0.2,0.4-0.4,0.7-0.4c0.3,0,0.5,0.1,0.6,0.3c0.1,0.2,0.2,0.5,0.2,0.9V48.8z M80.6,48.5h1.1c0-0.3-0.1-0.6-0.1-0.7 c-0.1-0.1-0.2-0.2-0.4-0.2c-0.2,0-0.3,0.1-0.4,0.2C80.7,47.9,80.6,48.2,80.6,48.5z M75,48.8h-1.6l0-0.1c0-0.4,0-0.7,0.2-1l0,0 c0.1-0.2,0.4-0.4,0.7-0.4c0.3,0,0.5,0.1,0.6,0.3c0.1,0.2,0.2,0.5,0.2,0.9V48.8z M73.6,48.5h1.1c0-0.3-0.1-0.6-0.1-0.7 c-0.1-0.1-0.2-0.2-0.4-0.2c-0.2,0-0.3,0.1-0.4,0.2C73.7,47.9,73.6,48.2,73.6,48.5z M70,48.3h-0.9v-2.2h1c0.4,0,0.7,0.1,0.9,0.3 c0.2,0.2,0.3,0.4,0.3,0.8c0,0.4-0.1,0.7-0.4,0.9C70.8,48.2,70.5,48.3,70,48.3z M69.4,48.1H70c0.4,0,0.7-0.1,0.9-0.2 c0.2-0.1,0.3-0.3,0.3-0.7c0-0.3-0.1-0.5-0.2-0.6c-0.2-0.1-0.4-0.2-0.8-0.2h-0.7V48.1z M96.2,48.1h-0.8v-1.9h0.1v-0.1h0.6 c0.4,0,0.7,0.1,0.9,0.2c0.2,0.2,0.3,0.4,0.3,0.8c0,0.4-0.1,0.7-0.3,0.8C96.9,48.1,96.6,48.1,96.2,48.1z M95.7,47.9h0.5 c0.4,0,0.6-0.1,0.7-0.2c0.1-0.1,0.2-0.3,0.2-0.6c0-0.3-0.1-0.5-0.2-0.6c-0.1-0.1-0.4-0.2-0.8-0.2h-0.5V47.9z M54.8,46.6H54v-1h0.9 V46.6z M54.2,46.3h0.3v-0.5h-0.3V46.3z"></path> </g> </g> </svg> 