<?xml version="1.0" encoding="UTF-8"?> <svg xmlns="http://www.w3.org/2000/svg" width="135" height="58" viewBox="0 0 135 58" fill="none"><rect width="135" height="58" fill="white"></rect><path d="M37.876 26.7668C38.9525 27.9211 39.0294 31.4609 41.7206 30.0758C43.3354 29.2293 43.2585 25.6895 41.1824 24.4583C39.4908 23.4579 38.4912 24.843 37.876 26.459C37.7991 26.6129 37.7991 26.6899 37.876 26.7668Z" fill="#ABAFBB"></path><path d="M33.8004 26.2282C32.724 27.1517 31.955 29.6911 29.879 28.7677C28.2642 27.9212 28.1105 24.6892 30.8786 23.1502C32.8777 22.2267 33.8773 24.0736 33.8773 25.9204C33.8773 26.0743 33.8004 26.1513 33.8004 26.2282Z" fill="#ABAFBB"></path><path d="M36.4901 32.6152C37.5666 32.5382 37.3359 31.4609 36.4901 31.23C35.7212 30.9992 34.6447 30.8453 33.8758 30.8453C32.4917 30.8453 32.4917 31.9226 33.2606 32.1535C33.7989 32.3074 34.1833 32.3843 34.6447 32.9999C35.0292 33.9234 34.8754 32.846 36.4901 32.6152Z" fill="#ABAFBB"></path><path d="M41.6418 14.5315C43.0258 12.2229 45.4095 12.6846 46.5629 13.8389C47.87 15.0701 48.1007 16.5322 47.5625 17.5326C46.8704 18.9177 45.1019 20.5337 43.9485 18.9177C43.4103 18.2252 42.3338 17.3787 41.7956 17.1478C40.9498 16.6861 40.796 15.9166 41.6418 14.5315Z" fill="#ABAFBB"></path><path d="M47.1027 24.6122C46.949 24.2274 46.7952 24.2274 46.7952 24.5353C46.8721 28.6907 44.4115 33.1539 39.106 33.1539C37.7219 33.1539 38.1833 35.3085 35.6459 34.2312C33.8774 33 32.8009 35.3855 31.5706 32.8461C31.263 32.0765 30.8786 31.8457 30.3403 31.6918C25.1117 30.3836 23.4201 23.1501 28.0336 17.3018C28.9563 17.8404 29.2638 17.9174 30.2634 17.0709C30.8017 16.6092 31.6475 16.0705 32.1088 15.9166C33.1853 15.4549 33.8005 14.9932 32.8778 12.9155C31.6475 10.1452 29.1101 10.9148 27.9567 11.9151C26.6495 12.9925 25.7268 14.7624 27.4184 16.7631C22.728 19.9181 21.8822 23.7657 21.9591 27.1516C22.036 30.7684 21.1133 30.4606 22.2667 34.1542C22.3436 34.4621 22.1129 34.4621 21.9591 34.3851C17.1149 31.2301 14.5006 21.688 22.1129 16.3784C22.2667 16.2244 22.1898 15.9936 21.5747 16.3784C14.962 19.8412 14.3468 26.6899 15.4233 31.2301C15.9616 33.4617 15.1157 33.8464 16.0384 36.7706C18.0376 42.8498 19.6524 43.3115 22.036 43.4654C26.342 43.4654 23.4201 41.0799 23.5738 38.0788C23.5738 37.9249 23.8045 37.8479 23.8814 38.1557C26.342 43.5424 28.0336 48.3904 34.2618 47.9286C37.8757 47.4669 35.8765 45.697 35.6459 44.6197C32.9546 35.7702 39.4136 33.6925 37.6451 42.3112C36.4148 47.2361 40.2594 46.7744 42.9506 45.0045C45.6418 43.1576 49.1019 31.1531 47.1027 24.6122ZM36.5686 35.0007C35.9534 36.6167 32.8778 36.078 32.8009 34.539C32.8009 34.4621 32.8778 34.4621 32.9546 34.4621C34.3387 34.7699 35.6459 34.9238 36.5686 34.9238C36.4917 34.9238 36.5686 34.9238 36.5686 35.0007Z" fill="#ABAFBB"></path><path d="M22.7259 45.6971C22.7259 46.3127 22.1877 46.8513 21.5725 46.8513C20.9574 46.8513 20.4192 46.3127 20.4192 45.6971C20.4192 45.0814 20.9574 44.5428 21.5725 44.5428C22.1877 44.5428 22.7259 45.0814 22.7259 45.6971ZM21.5725 44.3119C20.8036 44.3119 20.1885 44.9275 20.1885 45.6971C20.1885 46.4666 20.8036 47.0822 21.5725 47.0822C22.3414 47.0822 22.9566 46.4666 22.9566 45.6971C22.9566 44.9275 22.3414 44.3119 21.5725 44.3119Z" fill="#ABAFBB"></path><path d="M21.9578 45.9279C21.9578 46.0818 21.804 46.2357 21.5733 46.2357C21.3426 46.2357 21.112 46.0048 21.112 45.697C21.112 45.3892 21.2658 45.2353 21.5733 45.2353C21.7271 45.2353 21.8809 45.3122 21.9578 45.5431H22.1885C22.1885 45.2353 21.8809 45.0814 21.6502 45.0814C21.2658 45.0814 21.0351 45.3892 21.0351 45.774C20.9582 46.0818 21.1889 46.3896 21.6502 46.3896C21.9578 46.3896 22.1885 46.2357 22.1885 45.9279H21.9578Z" fill="#ABAFBB"></path><path d="M76.5059 21.5947C75.8246 21.5947 75.3137 21.9356 75.1434 22.6174L72.2481 30.1169L71.9075 30.9692L71.7372 30.1169L69.3528 22.7878C69.1825 22.1061 68.5013 21.7652 67.9903 21.7652H64.2435C63.3919 21.7652 62.7107 22.4469 62.7107 23.2992C62.7107 23.4696 62.881 23.8105 62.881 24.1514L63.3919 25.6854L61.5185 30.2874L61.3482 30.9692L61.1779 30.1169L58.7935 22.7878C58.6232 22.1061 57.942 21.7652 57.2607 21.7652H53.6842C52.8326 21.7652 52.1514 22.4469 52.1514 23.2992C52.1514 23.4696 52.3217 23.8105 52.3217 24.1514L57.942 40.3436C58.1123 41.0254 58.6232 41.5367 59.4748 41.5367C60.156 41.5367 60.8372 41.0254 61.0076 40.514L64.7544 30.7987L65.095 29.9465L65.2653 30.7987L68.5013 40.3436C68.6716 41.0254 69.1825 41.5367 70.0341 41.5367C70.7153 41.5367 71.3965 41.0254 71.5669 40.3436L78.0387 23.8105C78.209 23.6401 78.209 23.2992 78.209 23.1287C78.0387 22.2765 77.3574 21.5947 76.5059 21.5947Z" fill="#ABAFBB"></path><path d="M103.755 21.5947C103.074 21.5947 102.563 21.9356 102.223 22.6174L99.3274 30.1169L98.9868 30.9692L98.8165 30.1169L96.6024 22.7878C96.4321 22.1061 95.7509 21.7652 95.0696 21.7652H91.3228C90.4712 21.7652 89.79 22.4469 89.79 23.2992C89.79 23.4696 89.79 23.8105 89.9603 24.1514L90.4712 25.6854L88.5978 30.2874V30.9692L88.4275 30.1169L86.2134 22.7878C86.0431 22.1061 85.3619 21.7652 84.8509 21.7652H81.1041C80.2525 21.7652 79.5713 22.4469 79.5713 23.2992C79.5713 23.4696 79.7416 23.8105 79.7416 24.1514L85.1916 40.5141C85.3619 41.1958 85.8728 41.7072 86.7244 41.7072C87.4056 41.7072 87.9165 41.1958 88.2572 40.6845L92.004 30.9692L92.3446 30.1169L92.5149 30.9692L95.7509 40.5141C95.9212 41.1958 96.6024 41.7072 97.2837 41.7072C97.9649 41.7072 98.6462 41.1958 98.8165 40.5141L105.288 23.981C105.459 23.8105 105.459 23.4696 105.459 23.2992C105.288 22.2765 104.607 21.5947 103.755 21.5947Z" fill="#ABAFBB"></path><path d="M121.638 21.5947H108.864C108.183 21.5947 107.502 22.1061 107.502 22.9583V26.1967V40.0027C107.502 40.8549 108.183 41.3663 108.864 41.3663H112.441C113.293 41.3663 113.803 40.6845 113.803 40.0027V31.9918H119.083C119.764 31.9918 120.446 31.3101 120.446 30.6283C120.446 29.9465 119.764 29.2647 119.083 29.2647H113.974V24.6627H121.638C122.489 24.6627 123 23.981 123 23.1287C123 22.2765 122.319 21.5947 121.638 21.5947Z" fill="#ABAFBB"></path><path d="M122.149 16.6519C122.149 18.0154 120.957 19.2085 119.594 19.2085C118.232 19.2085 117.04 18.0154 117.04 16.6519C117.04 15.2883 118.232 14.0952 119.594 14.0952C120.957 14.0952 122.149 15.2883 122.149 16.6519ZM119.424 13.5839C117.721 13.5839 116.358 14.9474 116.358 16.6519C116.358 18.3563 117.721 19.7199 119.424 19.7199C121.127 19.7199 122.49 18.3563 122.49 16.6519C122.49 14.9474 121.127 13.5839 119.424 13.5839Z" fill="#ABAFBB"></path><path d="M118.913 16.8223H119.424L120.276 18.0154H120.787L119.935 16.6519C120.446 16.6519 120.616 16.311 120.616 15.7997C120.616 15.2883 120.276 14.9474 119.595 14.9474H118.402V17.845H118.913V16.8223V16.8223ZM118.913 16.4814V15.6292H119.424C119.765 15.6292 120.105 15.6292 120.105 16.1406C120.105 16.6519 119.765 16.6519 119.424 16.6519H118.913V16.4814Z" fill="#ABAFBB"></path></svg> 