<?xml version="1.0" encoding="UTF-8"?> <!-- Generator: Adobe Illustrator 24.1.0, SVG Export Plug-In . SVG Version: 6.00 Build 0) --> <svg xmlns="http://www.w3.org/2000/svg" xmlns:xlink="http://www.w3.org/1999/xlink" version="1.1" id="Layer_1" x="0px" y="0px" viewBox="0 0 135 58" style="enable-background:new 0 0 135 58;" xml:space="preserve"> <style type="text/css"> .st0{fill:#FFFFFF;} .st1{fill:#ABAFBB;} .st2{fill-rule:evenodd;clip-rule:evenodd;fill:#ABAFBB;} </style> <rect class="st0" width="135" height="58"></rect> <g> <path class="st1" d="M15.8,24.9v11.3h-2.3V23.1c0-1.1,1.3-1.7,2.1-1l10.9,7.8c0.3,0.2,0.5,0.6,0.5,1v5.3h-2.3v-4.8L15.8,24.9z"></path> <path class="st1" d="M52.6,23.8c-0.9,0-1.6,0.7-1.6,1.6v9.8h2.1v-8.5l2.8,4.4c0.3,0.5,0.9,0.8,1.5,0.8c0.6,0,1.2-0.3,1.5-0.8 l2.9-4.4v8.5H64v-9.9c0-0.8-0.7-1.5-1.5-1.5c-0.5,0-1.1,0.3-1.3,0.7l-3.6,5.8l-3.5-5.8C53.8,24.1,53.2,23.8,52.6,23.8z"></path> <path class="st2" d="M73.7,23.8c-0.7,0-1.3,0.4-1.6,1l-4.3,10.3h2l1.3-3h4.9l1.3,3h2.2l-4.3-10.3C75,24.2,74.4,23.8,73.7,23.8z M73.7,26.1l1.7,4.2H72L73.7,26.1z"></path> <path class="st1" d="M85.3,29l5.1-4.9c0.2-0.2,0.4-0.3,0.7-0.3c0.8,0,1.3,1,0.7,1.6l-4.1,3.9l6,5.9H91l-5.7-5.5v5.5h-2.1V24.8 c0-0.6,0.5-1,1.1-1c0.6,0,1.1,0.5,1.1,1V29z"></path> <path class="st1" d="M97.4,33.4c0,1,0.9,1.8,1.9,1.8h5.5c0.5,0,1-0.4,1-0.9c0-0.5-0.4-0.9-1-0.9h-5.3v-3.1h4.8c0.5,0,1-0.4,1-0.9 c0-0.5-0.4-0.9-1-0.9h-4.8v-2.7h5.3c0.5,0,1-0.4,1-0.9c0-0.5-0.4-0.9-1-0.9h-5.5c-1.1,0-1.9,0.8-1.9,1.8V33.4z"></path> <path class="st2" d="M119.8,27.1c0,0.4,0,0.7-0.1,1c-0.1,0.3-0.2,0.6-0.4,0.9c-0.2,0.3-0.5,0.6-0.8,0.8c-0.3,0.2-0.7,0.4-1.2,0.6 l3.6,4.8H118l-3.3-4.4h-2v4.4h-2.1v-9.6c0-1,0.9-1.8,1.9-1.8h3.2c0.3,0,0.5,0,0.7,0c0.2,0,0.5,0,0.8,0.1c0.3,0,0.6,0.1,0.8,0.2 c0.2,0.1,0.5,0.2,0.7,0.4c0.3,0.2,0.5,0.4,0.6,0.6c0.2,0.2,0.3,0.5,0.4,0.8C119.8,26.3,119.8,26.6,119.8,27.1z M112.7,25.7v3.3h1.9 c0.3,0,0.6,0,0.9,0c0.3,0,0.5-0.1,0.8-0.1c0.3-0.1,0.5-0.2,0.7-0.3c0.2-0.1,0.3-0.3,0.4-0.5c0.1-0.2,0.2-0.5,0.2-0.7 c0-1.1-0.9-1.6-2.6-1.6H112.7z"></path> <path class="st1" d="M40,36.2V24.9l-9,6.4v4.8h-2.3v-5.3c0-0.4,0.2-0.8,0.5-1l10.9-7.8c0.9-0.6,2.1,0,2.1,1v13.1H40z"></path> </g> </svg> 