<?xml version="1.0" encoding="UTF-8"?> <!-- Generator: Adobe Illustrator 24.1.0, SVG Export Plug-In . SVG Version: 6.00 Build 0) --> <svg xmlns="http://www.w3.org/2000/svg" xmlns:xlink="http://www.w3.org/1999/xlink" version="1.1" id="Layer_1" x="0px" y="0px" viewBox="0 0 135 58" style="enable-background:new 0 0 135 58;" xml:space="preserve"> <style type="text/css"> .st0{fill:#FFFFFF;} .st1{fill-rule:evenodd;clip-rule:evenodd;fill:#ABAFBB;} </style> <rect class="st0" width="135" height="58"></rect> <g> <polygon class="st1" points="90.3,22.3 93.9,22.3 93.9,27.6 101,27.6 101,22.3 104.6,22.3 104.6,35.7 101,35.7 101,29.8 93.9,29.8 93.9,35.7 90.3,35.7 90.3,22.3 "></polygon> <polygon class="st1" points="24,22.3 27.5,22.3 27.5,27.6 34.7,27.6 34.7,22.3 38.3,22.3 38.3,35.7 34.7,35.7 34.7,29.8 27.5,29.8 27.5,35.7 24,35.7 24,22.3 "></polygon> <polygon class="st1" points="41.2,22.3 44.8,22.3 44.8,35.7 41.2,35.7 41.2,22.3 "></polygon> <polygon class="st1" points="107.4,22.3 111,22.3 111,35.7 107.4,35.7 107.4,22.3 "></polygon> <polygon class="st1" points="46.1,22.3 60,22.3 60,24.5 54.8,24.5 54.8,35.7 51.3,35.7 51.3,24.5 46.1,24.5 46.1,22.3 "></polygon> <path class="st1" d="M63,30.5l2.5-6l2.4,6H63L63,30.5z M68.9,32.7l1.2,3h4l-6.3-13.3h-4.5l-6.4,13.3h4l1.2-3H68.9L68.9,32.7z"></path> <path class="st1" d="M84.8,26.8h3.6c0-2.4-2.1-4.7-7-4.8c-3.6,0-8,1.5-8,6.9c0,5.4,4.5,7.1,8,7c3.3-0.1,7-1,7.1-5.1l-3.6,0 c-0.1,2.5-2.1,3-3.5,3.1c-1.4,0-4.2-0.3-4.2-4.9c0-4.4,2.5-5,4.2-5C83.1,24.1,84.8,24.8,84.8,26.8L84.8,26.8z"></path> </g> </svg> 